<?xml version="1.0" encoding="utf-8"?>
<!-- Generator: Adobe Illustrator 22.0.1, SVG Export Plug-In . SVG Version: 6.00 Build 0)  -->
<svg version="1.1" id="Layer_1" xmlns="http://www.w3.org/2000/svg" xmlns:xlink="http://www.w3.org/1999/xlink" x="0px" y="0px"
	 viewBox="0 0 195 82.6" style="enable-background:new 0 0 195 82.6;" xml:space="preserve">
<style type="text/css">
	.st0{fill:#FFFFFF;}
</style>
<g>
	<path class="st0" d="M12.4,65c0,0-3.3-5.1-7.4-1.1C4,65,4,66.6,4,66.6s-5.3-0.5-3.7,5.8s4.2,9,4.2,9h7.9L12.4,65z"/>
	<polygon class="st0" points="64.1,55 35.1,25.9 6.1,55 4,52.9 35.1,21.9 66.1,52.9 	"/>
	<g>
		<path class="st0" d="M55.3,58.1l-2.4,3.5c-0.8-1.1-2.9-2.8-5.3-2.8c-1.7,0-3.2,0.6-3.2,2.5c0,4.2,11,2.6,11,9.4
			c0,3.3-1.9,7.1-7.8,7.1c-3.5,0-6-1.6-7.9-3.3l2.6-3.4c1.5,1.7,4,4.2,7,4.2c2.6,0,3.4-1.1,3.4-3c0-4.9-11.3-3.1-11.3-9.5
			c0-3.9,3.4-6,7-6c1.9,0,3.7,0.7,4.8,1.4l0.8-0.9L55.3,58.1z"/>
		<path class="st0" d="M57.9,77.3V76h1.5V65.5L57.9,66v-1.3l5.5-1.8c-0.1,0.7-0.1,1.4-0.1,2.1V76h1.5v1.3H57.9z M63.3,59.3
			c0,1.2-0.7,2.2-2.2,2.2c-1.4,0-2.2-1-2.2-2.2c0-1.2,1-2.2,2.2-2.2C62.3,57.2,63.3,58,63.3,59.3z"/>
		<path class="st0" d="M74.5,65.3H72V74c0,0.7,0.4,1.3,1.3,1.3c0.6,0,1.1-0.3,1.6-0.6l0.8,1c-1.2,1.3-2.5,2-4.2,2
			c-2,0-3.4-1.3-3.4-3.5v-8.9h-1.9v-1.4c2.3-0.4,3.6-1.9,4.6-3.9l1.4,0.3c-0.1,0.6-0.2,2.5-0.2,3.1H75L74.5,65.3z"/>
		<path class="st0" d="M80.5,64.1c1-0.6,2.3-1.2,4-1.2c2.9,0,4.3,1.8,4.3,4.3V76h1.6v1.3h-4.8l-0.4-1.6c-0.9,1.1-2.1,2-4.2,2
			c-2.9,0-4.7-1.8-4.7-4.5c0-3.9,3.2-5.1,7.9-5.1H85c0-2.2-0.7-3.2-2.3-3.2c-1.4,0-2.5,1.2-3.2,2.3l-1.4-0.4l1.1-3.9l1.4,0.4
			L80.5,64.1z M82.6,75.1c1.5,0,2.4-0.8,2.4-1.8v-3.6c-0.7,0-0.8-0.1-1.5-0.1c-1.8,0-3.1,0.7-3.1,2.7C80.3,74,81.2,75.1,82.6,75.1z"
			/>
		<path class="st0" d="M93.6,60L92,60.5v-1.3l6.8-2.3v1.3l-1.3,0.5v6.2c1.1-0.8,2.7-1.9,4.6-1.9c2.4,0,4.1,1.5,4.1,4v9h1.6v1.3h-6.9
			V76h1.5v-8.7c0-1.3-0.8-1.7-1.8-1.7c-1.1,0-2.5,1-3,1.4v9H99v1.3h-7V76h1.5V60z"/>
		<path class="st0" d="M124.9,70.3c0,4.1-3,7.4-7.8,7.4c-4.8,0-7.8-3.3-7.8-7.4c0-4.1,3-7.4,7.8-7.4C122,62.9,124.9,66.2,124.9,70.3
			z M121.1,71.9c0-3.5-1.5-7.3-4.5-7.3c-2.2,0-3.3,2-3.3,4c0,4.4,1.8,7.4,4.4,7.4C120.2,76,121.1,74.4,121.1,71.9z"/>
		<path class="st0" d="M136.8,75.7c-1.4,1.2-2.8,2-4.8,2c-2.4,0-3.9-1.6-3.9-4.4v-7.8l-1.7,0.6v-1.3l5.6-1.8
			c-0.1,0.8-0.1,1.6-0.1,2.5v7.4c0,1.5,0.7,2.3,2,2.3c1,0,2-0.6,2.8-1.5v-8l-1.4,0.4v-1.3l5.3-1.7c-0.1,0.7-0.1,1.4-0.1,2.6V76h1.5
			v1.3H137L136.8,75.7z"/>
		<path class="st0" d="M153.4,67.2c-1.4-1.4-2.8-2.6-4.4-2.6c-1,0-1.5,0.6-1.5,1.4c0,3,8,1.6,8,6.5c0,3.2-2.3,5.2-6.3,5.2
			c-2.4,0-4.3-0.8-5.8-2.2l2-2.8c1.3,1.3,3.2,3.3,5.3,3.3c1.2,0,2-0.6,2-1.9c0-2.9-7.8-1.5-7.8-6.7c0-2.7,2-4.5,5.2-4.5
			c1.9,0,3.7,0.5,5.2,1.6L153.4,67.2z"/>
		<path class="st0" d="M171.5,74.2c-1.2,1.5-3.1,3.5-6.9,3.5c-4.1,0-7.1-3-7.1-7.1c0-3.9,2.6-7.7,7.3-7.7c3.7,0,5.7,2.3,6.7,5.5
			c-0.9,0.2-1.8,0.6-2.7,0.9l-7,2.5c0.5,1.4,1.8,3.3,4.4,3.3c1.6,0,2.9-0.7,4.2-1.8L171.5,74.2z M167.7,67.9
			c-0.5-1.6-1.5-3.3-3.5-3.3c-2.1,0-3.2,1.7-3.2,3.8c0,0.6,0.1,1.3,0.2,1.8L167.7,67.9z"/>
	</g>
	<g>
		<path class="st0" d="M173.7,77.3c0,0.4-0.4,0.7-0.7,0.7c-0.3,0-0.7-0.3-0.7-0.7c0-0.4,0.3-0.7,0.7-0.7
			C173.3,76.6,173.7,76.9,173.7,77.3z"/>
		<path class="st0" d="M178.8,73.6l-0.3-0.3c0.1-0.1,0.2-0.3,0.2-0.5c0-0.5-0.4-0.7-1-0.7c-1.2,0-1.9,1.1-1.9,2.5
			c0,1.5,0.7,2.7,2.1,2.7c0.9,0,1.6-0.5,1.9-0.9l0.3,0.4c-0.5,0.6-1.3,1.3-2.6,1.3c-1.8,0-3.1-1.4-3.1-3.3c0-1.7,1.4-3.2,3.3-3.2
			c0.9,0,1.5,0.4,1.9,0.7l0.3-0.3l0.3,0.3L178.8,73.6z"/>
		<path class="st0" d="M184,71.6c1.9,0,3.3,1.3,3.3,3.3c0,1.9-1.6,3.2-3.5,3.2c-2.2,0-3.3-1.8-3.3-3.3
			C180.6,72.6,182.2,71.6,184,71.6z M184.2,77.5c1.2,0,1.8-0.9,1.8-2.3c0-1.8-0.8-3.1-2.2-3.1c-1.2,0-1.8,1-1.8,2.3
			C182,76.3,183,77.5,184.2,77.5z"/>
		<path class="st0" d="M192.9,73.7L192.9,73.7l-1.2,3.1c-0.1,0.3-0.2,0.7-0.3,1h-0.8l-1.1-4.2h0l-0.6,3.7h0.6v0.5h-1.8v-0.5h0.5
			l0.8-5.1h-0.5v-0.5h1.7l1.1,4.2h0l1.6-4.2h1.6v0.5h-0.6l0.5,5.1h0.6v0.5h-2.5v-0.5h0.7L192.9,73.7z"/>
	</g>
	<rect x="22.6" y="49.8" class="st0" width="5.4" height="8.7"/>
	<rect x="29.3" y="49.8" class="st0" width="5.4" height="8.7"/>
	<rect x="22.6" y="59.9" class="st0" width="5.4" height="8.7"/>
	<rect x="29.3" y="59.9" class="st0" width="5.4" height="8.7"/>
	<rect x="4.5" y="81.2" class="st0" width="190.5" height="1.4"/>
	<rect x="11.8" y="60.8" class="st0" width="2.3" height="21.6"/>
	<polygon class="st0" points="10.3,49.2 13.5,52.9 38.2,28.1 35.1,23.9 	"/>
	<polygon class="st0" points="62.3,52.5 58.4,48.6 58.4,37.7 62.2,37.7 	"/>
	<path class="st0" d="M52.9,21l-1.6-2c-0.1-0.2-0.3-0.3-0.6-0.4c0,0,0.1,0,0.1,0c0.4-0.3,0.6-0.8,0.4-1.3l-3.5-9.9
		c-0.1-0.4-0.5-0.7-0.9-0.7l-1.2-0.1c-0.1,0-0.2,0-0.3,0C45.7,6.3,46,6,46.2,5.6c1.2-1.9,1-4.3-0.5-5.2c-1.5-0.9-3.7-0.1-4.9,1.9
		c-1.1,1.8-1,3.9,0.2,5c-0.3,0.1-0.6,0.3-0.7,0.6l-0.1,0.3c-0.6,0.7-1.7,2.1-3.1,4.5c-1.8,3-2.8,8.6-3.1,10.4l-0.5,1.2
		c-0.2,0.4-0.1,0.8,0.2,1.1c0.3,0.3,0.7,0.4,1.1,0.3l2.2-0.5l10.2-0.3l-3.5,8.8c-0.1,0.3-0.1,0.7,0.1,1c0.2,0.3,0.5,0.5,0.9,0.5h2.8
		l0.5,0.8c0.2,0.3,0.5,0.5,0.9,0.5c0.2,0,0.4-0.1,0.6-0.2c0.5-0.3,0.6-1,0.3-1.5l-2-3l4.6-7.5c0.2-0.3,0.2-0.7,0-1.1
		c-0.1-0.2-0.2-0.3-0.4-0.4c0.1,0,0.1,0,0.2,0c0.2,0,0.5-0.1,0.7-0.2C53.2,22.1,53.2,21.4,52.9,21z M42.4,15.2l1,3.5
		c0.1,0.4,0.4,0.6,0.8,0.7l3.7,0.8l-8.4,2L42.4,15.2z M49.4,18.4l-4.1-0.9l-1.5-5L49.4,18.4z M44.6,7.2c0,0.1-0.1,0.2-0.1,0.3
		c-0.1,0.6,0.4,1.1,0.9,1.2L46,8.8l1.6,4.6l-5.3-5.6C43,7.9,43.8,7.7,44.6,7.2z M46.8,22.7l1.2-0.3l-0.1,0.2L46.8,22.7z M49.3,24.8
		l0.1-0.1l0,0L49.3,24.8z M51.3,22.5l-1.1,0l0.4-1l0.6,0.8c0.1,0.1,0.2,0.2,0.3,0.2C51.4,22.5,51.4,22.5,51.3,22.5z"/>
</g>
</svg>
