<?xml version="1.0" encoding="utf-8"?>
<!-- Generator: Adobe Illustrator 24.0.1, SVG Export Plug-In . SVG Version: 6.00 Build 0)  -->
<svg version="1.1" id="Layer_1" xmlns="http://www.w3.org/2000/svg" xmlns:xlink="http://www.w3.org/1999/xlink" x="0px" y="0px"
	 viewBox="0 0 153 66.6" style="enable-background:new 0 0 153 66.6;" xml:space="preserve">
<style type="text/css">
	.st0{fill:#20AC79;}
	.st1{fill:#00532C;}
	.st2{enable-background:new    ;}
</style>
<g>
	<path d="M47.2,44.4h12.5v2.3h-4.9v13.1h-2.7v-13h-4.8L47.2,44.4L47.2,44.4z M59.2,48.7h2.3v2.2l0,0c0.1-0.3,0.2-0.6,0.4-0.9
		c0.2-0.3,0.5-0.6,0.7-0.8c0.3-0.2,0.6-0.4,1-0.6c0.3-0.2,0.7-0.2,1.1-0.2c0.3,0,0.5,0,0.6,0s0.2,0,0.3,0v2.3
		c-0.2,0-0.3-0.1-0.6-0.1c-0.2,0-0.3,0-0.6,0c-0.4,0-0.8,0.1-1.2,0.2c-0.3,0.2-0.7,0.4-1,0.7c-0.2,0.3-0.5,0.7-0.6,1.2
		c-0.2,0.5-0.2,1-0.2,1.7v5.3h-2.3L59.2,48.7L59.2,48.7z M77,59.8h-2.4v-1.5l0,0c-0.3,0.6-0.7,1-1.4,1.4c-0.6,0.3-1.2,0.5-1.9,0.5
		c-1.4,0-2.5-0.3-3.2-1c-0.6-0.7-1-1.9-1-3.3v-7.1h2.5v6.8c0,1,0.2,1.7,0.6,2.1c0.3,0.4,0.9,0.6,1.6,0.6c0.5,0,1-0.1,1.3-0.2
		c0.3-0.2,0.6-0.3,0.8-0.6c0.2-0.2,0.3-0.6,0.5-1c0.1-0.3,0.2-0.8,0.2-1.2v-6.5h2.5L77,59.8L77,59.8z M81.2,56.3
		c0.1,0.7,0.3,1.2,0.8,1.5s1,0.4,1.7,0.4c0.2,0,0.5,0,0.8-0.1c0.3,0,0.6-0.1,0.8-0.2c0.2-0.1,0.5-0.2,0.6-0.5
		c0.2-0.2,0.2-0.5,0.2-0.7c0-0.3-0.1-0.6-0.3-0.8s-0.5-0.3-0.8-0.5c-0.3-0.1-0.7-0.2-1.1-0.3s-0.9-0.2-1.3-0.2
		c-0.5-0.1-0.9-0.2-1.3-0.3c-0.4-0.2-0.8-0.3-1.1-0.6c-0.3-0.2-0.6-0.6-0.8-1c-0.2-0.4-0.3-0.8-0.3-1.4c0-0.6,0.2-1.1,0.5-1.5
		s0.6-0.7,1.1-1c0.5-0.2,1-0.4,1.5-0.6c0.6-0.1,1-0.2,1.6-0.2s1.1,0.1,1.7,0.2s1,0.3,1.4,0.6c0.4,0.2,0.8,0.6,1,1
		c0.2,0.5,0.5,1,0.6,1.6h-2.9c-0.1-0.6-0.4-1-0.8-1.2s-0.9-0.3-1.4-0.3c-0.2,0-0.4,0-0.6,0s-0.5,0.1-0.6,0.2
		c-0.2,0.1-0.4,0.2-0.6,0.3c-0.2,0.2-0.2,0.3-0.2,0.6s0.1,0.6,0.3,0.7c0.2,0.2,0.5,0.3,0.8,0.5c0.3,0.1,0.7,0.2,1.1,0.3
		S84.5,53,85,53s0.9,0.2,1.3,0.3c0.4,0.2,0.8,0.3,1.1,0.6c0.3,0.2,0.6,0.6,0.8,1c0.2,0.3,0.3,0.8,0.3,1.4c0,0.6-0.2,1.2-0.5,1.7
		s-0.7,0.8-1.2,1.1s-1,0.5-1.6,0.6s-1.2,0.2-1.8,0.2c-0.7,0-1.4-0.1-1.9-0.2c-0.6-0.2-1.1-0.4-1.5-0.7c-0.5-0.3-0.8-0.7-1-1.2
		s-0.4-1-0.4-1.7h2.5L81.2,56.3L81.2,56.3z M89.3,48.7h1.9v-3.4h2.5v3.4H96v1.9h-2.3v6c0,0.2,0,0.5,0,0.6s0.1,0.3,0.2,0.5
		c0.1,0.1,0.2,0.2,0.3,0.3c0.2,0.1,0.3,0.1,0.6,0.1c0.2,0,0.3,0,0.5,0s0.3,0,0.5-0.1v1.9c-0.2,0-0.6,0.1-0.8,0.1c-0.2,0-0.5,0-0.8,0
		c-0.6,0-1.2-0.1-1.5-0.2c-0.4-0.1-0.7-0.3-1-0.6s-0.3-0.6-0.5-0.9c-0.1-0.3-0.1-0.8-0.2-1.2v-6.6h-1.9L89.3,48.7L89.3,48.7z
		 M97.6,48.7h2.3v1.5l0,0c0.3-0.6,0.8-1.1,1.4-1.4c0.6-0.2,1.3-0.4,2-0.4c0.9,0,1.7,0.2,2.3,0.5c0.6,0.3,1.2,0.7,1.6,1.3
		s0.7,1.2,1,1.9c0.2,0.7,0.3,1.5,0.3,2.3c0,0.7-0.1,1.4-0.3,2.2c-0.2,0.7-0.5,1.3-0.9,1.9s-0.9,1-1.5,1.3s-1.3,0.5-2.1,0.5
		c-0.3,0-0.7,0-1-0.1s-0.7-0.2-1-0.3s-0.6-0.3-1-0.6c-0.2-0.2-0.5-0.5-0.7-0.8l0,0v5.6h-2.5L97.6,48.7L97.6,48.7z M106.2,54.3
		c0-0.5-0.1-1-0.2-1.4s-0.3-0.9-0.6-1.3c-0.2-0.3-0.6-0.6-1-0.9s-0.8-0.3-1.4-0.3c-1,0-1.9,0.3-2.3,1c-0.5,0.7-0.8,1.7-0.8,2.9
		c0,0.6,0.1,1,0.2,1.5c0.2,0.5,0.3,0.9,0.6,1.2c0.2,0.3,0.6,0.6,1,0.8s0.8,0.3,1.3,0.3c0.6,0,1-0.1,1.4-0.3s0.7-0.6,1-0.9
		c0.2-0.3,0.4-0.8,0.6-1.3C106.1,55.2,106.2,54.8,106.2,54.3z M110.5,44.4h2.5v2.3h-2.5V44.4z M110.5,48.7h2.5v11.2h-2.5V48.7z
		 M115.2,44.4h2.5v15.5h-2.5V44.4z M125.2,60.2c-0.9,0-1.7-0.2-2.3-0.5c-0.7-0.3-1.3-0.7-1.8-1.2s-0.8-1.1-1.1-1.9
		c-0.2-0.7-0.4-1.5-0.4-2.4c0-0.8,0.1-1.6,0.4-2.3c0.2-0.7,0.6-1.4,1.1-1.9s1-1,1.8-1.2c0.7-0.3,1.5-0.5,2.3-0.5
		c0.9,0,1.7,0.2,2.3,0.5c0.7,0.3,1.3,0.7,1.8,1.2s0.8,1.1,1.1,1.9c0.2,0.7,0.4,1.5,0.4,2.3c0,0.9-0.1,1.7-0.4,2.4
		c-0.2,0.7-0.6,1.4-1.1,1.9s-1,1-1.8,1.2C126.9,60,126,60.2,125.2,60.2z M125.2,58.2c0.6,0,1-0.1,1.4-0.3s0.7-0.6,1-0.9
		c0.2-0.3,0.5-0.8,0.6-1.3c0.1-0.5,0.2-1,0.2-1.4c0-0.5-0.1-1-0.2-1.4c-0.1-0.5-0.3-0.9-0.6-1.3c-0.2-0.3-0.6-0.6-1-0.9
		s-0.9-0.3-1.4-0.3s-1,0.1-1.4,0.3s-0.7,0.6-1,0.9c-0.2,0.3-0.5,0.8-0.6,1.3s-0.2,1-0.2,1.4s0.1,1,0.2,1.4c0.1,0.5,0.3,0.9,0.6,1.3
		c0.2,0.4,0.6,0.6,1,0.9C124.1,58.1,124.6,58.2,125.2,58.2z M131.5,48.7h1.9v-3.4h2.5v3.4h2.3v1.9h-2.3v6c0,0.2,0,0.5,0,0.6
		s0.1,0.3,0.2,0.5c0.1,0.1,0.2,0.2,0.3,0.3c0.2,0.1,0.3,0.1,0.6,0.1c0.2,0,0.3,0,0.5,0s0.3,0,0.5-0.1v1.9c-0.2,0-0.6,0.1-0.8,0.1
		s-0.5,0-0.8,0c-0.6,0-1.2-0.1-1.5-0.2c-0.4-0.1-0.7-0.3-1-0.6c-0.2-0.2-0.3-0.6-0.5-0.9c-0.1-0.3-0.1-0.8-0.2-1.2v-6.6h-1.9
		L131.5,48.7L131.5,48.7z"/>
	<path class="st0" d="M44.4,44.4H33.2l-3.5-10.7l-3.5,10.7H14.9l9.1,6.7l-3.5,10.8l9.1-6.7l9.1,6.7l-3.5-10.7L44.4,44.4z"/>
	<path class="st1" d="M36,53.5l-0.8-2.4l-5.6,4.1L36,53.5z"/>
</g>
<g class="st2">
	<path d="M3.2,15.1v7l-1.5,0V6.7h6c1.7,0,3,0.3,3.9,0.9c0.9,0.6,1.3,1.7,1.3,3.1c0,1-0.2,1.7-0.6,2.3c-0.4,0.6-1,1.1-1.9,1.5
		c0.5,0.2,0.8,0.4,1.1,0.7c0.3,0.3,0.4,0.6,0.6,1c0.1,0.4,0.2,0.8,0.2,1.2s0.1,0.8,0.1,1.2c0,0.6,0,1.1,0.1,1.5
		c0,0.4,0.1,0.7,0.1,0.9c0,0.2,0.1,0.4,0.2,0.6c0.1,0.1,0.2,0.2,0.3,0.3v0.1l-1.6,0c-0.2-0.3-0.3-0.6-0.3-1.1S11,20.1,11,19.6
		c0-0.5-0.1-1-0.1-1.5c0-0.5-0.1-0.9-0.1-1.2c-0.1-0.4-0.2-0.7-0.4-1c-0.2-0.2-0.4-0.4-0.7-0.6c-0.3-0.1-0.6-0.2-0.9-0.3
		c-0.3,0-0.7-0.1-1-0.1H3.2z M7.7,13.9c0.5,0,1-0.1,1.5-0.2c0.5-0.1,0.9-0.3,1.2-0.5c0.3-0.2,0.6-0.6,0.8-0.9s0.3-0.8,0.3-1.4
		c0-0.6-0.1-1-0.3-1.4s-0.5-0.7-0.8-0.9C10,8.3,9.6,8.2,9.2,8.1C8.7,8,8.3,8,7.8,8H3.2v5.9H7.7z"/>
	<path d="M20.9,15.6c0.2,0,0.5-0.1,0.9-0.1c0.3-0.1,0.6-0.1,0.8-0.2c0.2-0.1,0.3-0.3,0.4-0.5c0-0.2,0.1-0.5,0.1-0.7
		c0-0.7-0.2-1.2-0.6-1.6c-0.4-0.4-1.1-0.6-2.1-0.6c-0.4,0-0.8,0-1.2,0.1c-0.4,0.1-0.7,0.2-1,0.4c-0.3,0.2-0.5,0.4-0.7,0.8
		c-0.2,0.3-0.3,0.7-0.4,1.2h-1.3c0-0.7,0.2-1.2,0.4-1.7c0.3-0.5,0.6-0.8,1-1.1c0.4-0.3,0.9-0.5,1.4-0.6c0.5-0.1,1.1-0.2,1.7-0.2
		c0.6,0,1.1,0.1,1.6,0.2c0.5,0.1,0.9,0.3,1.3,0.6c0.4,0.3,0.6,0.6,0.9,1.1s0.3,1,0.3,1.6v6c0,0.5,0.1,0.8,0.3,0.9
		c0.2,0.1,0.5,0.1,1.1-0.1v1c-0.1,0-0.2,0.1-0.4,0.1c-0.2,0.1-0.4,0.1-0.6,0.1c-0.2,0-0.4,0-0.6-0.1c-0.2,0-0.4-0.1-0.5-0.2
		c-0.1-0.1-0.2-0.2-0.3-0.4c-0.1-0.1-0.1-0.3-0.2-0.5c0-0.2,0-0.4,0-0.6c-0.5,0.6-1.2,1.1-1.9,1.4c-0.7,0.3-1.5,0.5-2.3,0.5
		c-0.5,0-0.9-0.1-1.4-0.2c-0.4-0.1-0.8-0.3-1.2-0.6c-0.3-0.3-0.6-0.6-0.8-1s-0.3-0.9-0.3-1.4c0-1.9,1.3-3,3.9-3.3L20.9,15.6z
		 M23,16.3c-0.5,0.2-1.1,0.4-1.6,0.4s-1.1,0.1-1.7,0.2c-1,0.1-1.7,0.3-2.3,0.7c-0.5,0.4-0.8,0.9-0.8,1.7c0,0.3,0.1,0.6,0.2,0.9
		c0.1,0.2,0.3,0.5,0.5,0.6c0.2,0.2,0.5,0.3,0.8,0.4c0.3,0.1,0.6,0.1,0.9,0.1c0.5,0,1-0.1,1.5-0.2c0.5-0.1,0.9-0.3,1.3-0.6
		c0.4-0.3,0.7-0.6,0.9-1C22.9,19,23,18.6,23,18V16.3z"/>
	<path d="M31.5,22.1c-0.2,0-0.4,0.1-0.6,0.1c-0.3,0.1-0.5,0.1-0.9,0.1c-0.6,0-1.1-0.2-1.5-0.5c-0.3-0.3-0.5-0.9-0.5-1.7v-8.1h-1.6
		V11h1.6V8h1.3V11h2.1v1.1h-2.1v7.6c0,0.3,0,0.5,0,0.7c0,0.2,0.1,0.4,0.1,0.5c0.1,0.1,0.2,0.2,0.3,0.3s0.4,0.1,0.6,0.1
		c0.2,0,0.3,0,0.5,0s0.4-0.1,0.5-0.1V22.1z"/>
	<path d="M34.4,16.9c0,0.6,0.1,1.2,0.2,1.7c0.2,0.5,0.4,1,0.7,1.4c0.3,0.4,0.7,0.7,1.2,0.9s1,0.4,1.6,0.4c0.8,0,1.6-0.2,2.2-0.7
		c0.6-0.4,1-1.1,1.2-1.9h1.4c-0.2,0.5-0.4,1-0.6,1.5c-0.3,0.4-0.6,0.8-1,1.2c-0.4,0.3-0.8,0.6-1.4,0.8c-0.5,0.2-1.1,0.3-1.8,0.3
		c-0.9,0-1.6-0.1-2.3-0.4s-1.2-0.7-1.6-1.2c-0.4-0.5-0.7-1.1-0.9-1.8c-0.2-0.7-0.3-1.5-0.3-2.3c0-0.8,0.1-1.6,0.4-2.3
		c0.2-0.7,0.6-1.3,1-1.9c0.4-0.5,1-1,1.6-1.3c0.6-0.3,1.3-0.5,2.1-0.5c1.5,0,2.7,0.5,3.6,1.6c0.9,1,1.3,2.6,1.3,4.6H34.4z
		 M41.6,15.8c0-0.5-0.1-1-0.2-1.5S41,13.4,40.7,13c-0.3-0.3-0.7-0.6-1.1-0.8c-0.4-0.2-0.9-0.3-1.5-0.3c-0.6,0-1.1,0.1-1.5,0.3
		c-0.4,0.2-0.8,0.5-1.1,0.9c-0.3,0.4-0.6,0.8-0.7,1.2c-0.2,0.5-0.3,1-0.4,1.5H41.6z"/>
	<path d="M54,6.7h1.3v15.4H54v-1.9h0c-0.2,0.4-0.4,0.7-0.7,1c-0.3,0.3-0.6,0.5-1,0.7c-0.3,0.2-0.7,0.3-1.1,0.4
		c-0.4,0.1-0.7,0.1-1.1,0.1c-0.9,0-1.7-0.1-2.3-0.4c-0.6-0.3-1.1-0.7-1.5-1.2c-0.4-0.5-0.7-1.1-0.9-1.8c-0.2-0.7-0.3-1.5-0.3-2.3
		c0-0.8,0.1-1.5,0.3-2.2s0.5-1.3,0.9-1.9s0.9-1,1.5-1.3c0.6-0.3,1.3-0.5,2.2-0.5c0.8,0,1.5,0.2,2.3,0.5c0.7,0.3,1.3,0.9,1.7,1.5V6.7
		z M54,16.5c0-0.6-0.1-1.2-0.3-1.8c-0.2-0.6-0.4-1.1-0.7-1.5c-0.3-0.4-0.7-0.8-1.2-1s-1-0.4-1.6-0.4c-0.7,0-1.2,0.1-1.7,0.4
		c-0.5,0.3-0.9,0.6-1.2,1.1c-0.3,0.5-0.5,1-0.7,1.6s-0.2,1.3-0.2,2c0,0.7,0.1,1.3,0.3,1.8c0.2,0.5,0.5,1,0.8,1.4
		c0.3,0.4,0.7,0.7,1.2,0.8c0.5,0.2,1,0.3,1.5,0.3c0.6,0,1.1-0.1,1.6-0.4s0.9-0.6,1.2-1c0.3-0.4,0.6-0.9,0.7-1.5S54,17.2,54,16.5z"/>
</g>
<g class="st2">
	<path d="M64.4,6.8h11v2.3h-8.3v4h7.7v2.2h-7.7v4.5h8.4v2.3H64.4V6.8z"/>
	<path d="M80.5,16.3l-3.8-5.2h2.9l2.3,3.4l2.4-3.4h2.8l-3.8,5.1l4.2,5.9h-2.9L81.9,18l-2.7,4.1h-2.9L80.5,16.3z"/>
	<path d="M96.4,14.7c-0.1-0.7-0.4-1.2-0.8-1.5c-0.4-0.3-1-0.5-1.7-0.5c-0.3,0-0.6,0.1-1,0.2c-0.4,0.1-0.7,0.3-1,0.6
		c-0.3,0.3-0.5,0.7-0.7,1.2c-0.2,0.5-0.3,1.2-0.3,2c0,0.5,0.1,0.9,0.2,1.4s0.3,0.9,0.5,1.2s0.5,0.6,0.9,0.9c0.4,0.2,0.8,0.3,1.3,0.3
		c0.7,0,1.3-0.2,1.8-0.7c0.5-0.4,0.8-1.1,0.9-1.9h2.4c-0.2,1.4-0.8,2.5-1.6,3.3c-0.9,0.8-2,1.1-3.4,1.1c-0.9,0-1.6-0.1-2.3-0.4
		c-0.7-0.3-1.2-0.7-1.7-1.2c-0.5-0.5-0.8-1.1-1-1.8c-0.2-0.7-0.4-1.5-0.4-2.3c0-0.8,0.1-1.6,0.3-2.3c0.2-0.7,0.6-1.4,1-1.9
		s1-1,1.7-1.3c0.7-0.3,1.5-0.5,2.4-0.5c0.6,0,1.2,0.1,1.8,0.2c0.6,0.2,1.1,0.4,1.5,0.7c0.4,0.3,0.8,0.7,1.1,1.2s0.5,1.1,0.5,1.8
		H96.4z"/>
	<path d="M102.8,17.2c0,0.4,0.1,0.8,0.2,1.2c0.1,0.4,0.3,0.7,0.5,1c0.2,0.3,0.5,0.5,0.9,0.7c0.4,0.2,0.8,0.3,1.3,0.3
		c0.7,0,1.3-0.2,1.7-0.5c0.4-0.3,0.8-0.8,1-1.4h2.3c-0.1,0.6-0.3,1.1-0.7,1.6c-0.3,0.5-0.7,0.9-1.1,1.2c-0.4,0.3-0.9,0.6-1.5,0.7
		c-0.5,0.2-1.1,0.2-1.7,0.2c-0.9,0-1.6-0.1-2.3-0.4c-0.7-0.3-1.2-0.7-1.7-1.2c-0.5-0.5-0.8-1.1-1-1.8s-0.4-1.5-0.4-2.3
		c0-0.8,0.1-1.5,0.4-2.2c0.2-0.7,0.6-1.3,1.1-1.9s1-1,1.7-1.3c0.7-0.3,1.4-0.5,2.2-0.5c0.9,0,1.6,0.2,2.3,0.5
		c0.7,0.4,1.3,0.8,1.7,1.4c0.5,0.6,0.8,1.3,1,2.1c0.2,0.8,0.3,1.6,0.2,2.4H102.8z M108.4,15.6c0-0.4-0.1-0.8-0.2-1.1
		s-0.3-0.7-0.6-0.9c-0.2-0.3-0.5-0.5-0.9-0.6c-0.3-0.2-0.7-0.2-1.1-0.2c-0.4,0-0.8,0.1-1.2,0.2s-0.6,0.4-0.9,0.6
		c-0.2,0.3-0.4,0.6-0.6,0.9s-0.2,0.7-0.2,1.2H108.4z"/>
	<path d="M112.8,6.8h2.4v15.2h-2.4V6.8z"/>
	<path d="M117.9,6.8h2.4v15.2h-2.4V6.8z"/>
	<path d="M124.9,17.2c0,0.4,0.1,0.8,0.2,1.2s0.3,0.7,0.5,1s0.5,0.5,0.9,0.7c0.4,0.2,0.8,0.3,1.3,0.3c0.7,0,1.3-0.2,1.7-0.5
		c0.4-0.3,0.8-0.8,1-1.4h2.3c-0.1,0.6-0.3,1.1-0.7,1.6c-0.3,0.5-0.7,0.9-1.1,1.2c-0.4,0.3-0.9,0.6-1.5,0.7c-0.5,0.2-1.1,0.2-1.7,0.2
		c-0.9,0-1.6-0.1-2.3-0.4c-0.7-0.3-1.2-0.7-1.7-1.2c-0.5-0.5-0.8-1.1-1-1.8c-0.2-0.7-0.4-1.5-0.4-2.3c0-0.8,0.1-1.5,0.4-2.2
		c0.2-0.7,0.6-1.3,1.1-1.9c0.5-0.5,1-1,1.7-1.3c0.7-0.3,1.4-0.5,2.2-0.5c0.9,0,1.6,0.2,2.3,0.5s1.3,0.8,1.7,1.4
		c0.5,0.6,0.8,1.3,1,2.1c0.2,0.8,0.3,1.6,0.2,2.4H124.9z M130.6,15.6c0-0.4-0.1-0.8-0.2-1.1c-0.1-0.4-0.3-0.7-0.6-0.9
		c-0.2-0.3-0.5-0.5-0.9-0.6c-0.3-0.2-0.7-0.2-1.1-0.2c-0.4,0-0.8,0.1-1.2,0.2c-0.3,0.1-0.6,0.4-0.9,0.6c-0.2,0.3-0.4,0.6-0.6,0.9
		s-0.2,0.7-0.2,1.2H130.6z"/>
	<path d="M134.9,11.1h2.3v1.6l0,0c0.4-0.6,0.9-1.1,1.5-1.4s1.3-0.5,2-0.5c1.2,0,2.2,0.3,2.9,0.9c0.7,0.6,1,1.6,1,2.8v7.6h-2.4v-6.9
		c0-0.9-0.2-1.5-0.6-1.9c-0.3-0.4-0.9-0.6-1.6-0.6c-0.4,0-0.8,0.1-1.1,0.2s-0.6,0.4-0.8,0.6c-0.2,0.3-0.4,0.6-0.5,0.9
		s-0.2,0.7-0.2,1.1v6.5h-2.4V11.1z"/>
	<path d="M146,11.1h1.8V7.7h2.4v3.3h2.2v1.8h-2.2v5.9c0,0.3,0,0.5,0,0.7c0,0.2,0.1,0.3,0.1,0.5s0.2,0.2,0.4,0.3
		c0.2,0.1,0.4,0.1,0.6,0.1c0.2,0,0.3,0,0.5,0c0.2,0,0.3,0,0.5-0.1v1.9c-0.3,0-0.5,0.1-0.8,0.1c-0.3,0-0.5,0-0.8,0
		c-0.6,0-1.2-0.1-1.5-0.2c-0.4-0.1-0.7-0.3-0.9-0.5c-0.2-0.2-0.4-0.5-0.4-0.9c-0.1-0.4-0.1-0.8-0.1-1.2v-6.5H146V11.1z"/>
</g>
</svg>
