<svg width="199" height="81" viewBox="0 0 199 81" fill="none" xmlns="http://www.w3.org/2000/svg">
<path d="M180.027 0V1.60842H197.394V19.0008H199V0H180.027Z" fill="#6DCEEC"/>
<path d="M199 80.9998H180.027V79.3914H197.394V61.999H199V80.9998Z" fill="#6DCEEC"/>
<path d="M23.77 0L16.7891 16.8562L40.4301 7.0556L23.77 0Z" fill="#6DCEEC"/>
<path d="M0.0429688 23.6761L7.00251 40.5324L16.7887 16.8564L0.0429688 23.6761Z" fill="#6DCEEC"/>
<path d="M0 57.2169L16.8314 64.2082L7.0452 40.5322L0 57.2169Z" fill="#6DCEEC"/>
<path d="M23.6417 80.9999L16.832 64.208L40.4731 74.0086L23.6417 80.9999Z" fill="#6DCEEC"/>
<path d="M57.0898 0L40.4297 7.0556L64.0707 16.8562L57.0898 0Z" fill="#6DCEEC"/>
<path d="M80.8609 23.6761L64.0938 16.8564L73.8585 40.5324L80.8609 23.6761Z" fill="#6DCEEC"/>
<path d="M80.9017 57.2169L73.8565 40.5322L64.0703 64.2082L80.9017 57.2169Z" fill="#6DCEEC"/>
<path d="M57.2611 80.9999L64.0707 64.208L40.4297 74.0086L57.2611 80.9999Z" fill="#6DCEEC"/>
<path d="M30.4064 42.6982C30.5002 45.6181 31.3261 48.4675 32.808 50.9839C34.2899 53.5003 36.3801 55.6029 38.8862 57.098C41.3922 58.5932 44.2337 59.433 47.1488 59.5399C50.064 59.6469 52.9591 59.0177 55.5678 57.7102C52.4994 60.8069 48.5819 62.9213 44.312 63.7852C40.0421 64.6491 35.6122 64.2236 31.5841 62.5626C27.556 60.9017 24.1111 58.0801 21.6865 54.4558C19.2618 50.8314 17.9665 46.5676 17.9648 42.205V23.3758H30.3849V42.205C30.3849 42.3766 30.3849 42.5481 30.3849 42.6982H30.4064ZM55.7819 18.4004L47.1093 27.8793H49.5719V42.1192C49.5719 44.6673 48.5611 47.1111 46.762 48.9128C44.9629 50.7146 42.5227 51.7268 39.9784 51.7268C38.8988 51.7356 37.826 51.5541 36.8091 51.1907C38.6263 53.4117 41.0723 55.0296 43.8252 55.8316C46.5782 56.6337 49.5091 56.5822 52.2323 55.6839C54.9555 54.7857 57.3433 53.0828 59.0815 50.7994C60.8198 48.516 61.827 45.759 61.9705 42.8913C61.9705 42.6339 61.9705 42.398 61.9705 42.1407V27.8793H64.4546L55.7819 18.4004Z" fill="#0054A6"/>
<path d="M108.591 18.6792C108.592 18.8743 108.647 19.0652 108.749 19.2315C108.851 19.3978 108.996 19.5331 109.169 19.6228C109.761 19.9483 110.406 20.1662 111.075 20.2662C111.996 20.4238 112.864 20.8069 113.601 21.3813C113.885 21.658 114.104 21.9932 114.245 22.3636C114.385 22.734 114.443 23.1307 114.415 23.5259C114.404 23.9378 114.305 24.3425 114.124 24.7125C113.942 25.0825 113.684 25.4092 113.366 25.6704C112.591 26.3104 111.607 26.6391 110.604 26.5926C109.556 26.6584 108.518 26.3549 107.67 25.7348C106.945 25.1263 106.453 24.2851 106.278 23.3543L107.991 22.475C108.291 24.1264 109.147 24.9413 110.582 24.9413C111.075 24.9632 111.562 24.8281 111.974 24.5553C112.134 24.4412 112.265 24.29 112.354 24.1144C112.444 23.9389 112.49 23.7444 112.488 23.5473C112.497 23.3334 112.445 23.1213 112.339 22.9353C112.233 22.7494 112.077 22.5973 111.888 22.4965C111.284 22.181 110.634 21.9639 109.961 21.8531C109.094 21.7133 108.281 21.343 107.606 20.7808C107.322 20.5296 107.098 20.2183 106.95 19.8696C106.802 19.5209 106.733 19.1436 106.749 18.765C106.721 18.3535 106.797 17.9416 106.969 17.567C107.141 17.1923 107.404 16.8669 107.734 16.6204C108.493 16.0763 109.414 15.8044 110.347 15.8484C111.201 15.7816 112.053 16.0086 112.762 16.4921C113.47 16.9755 113.993 17.6865 114.244 18.5076L112.723 19.3869C112.611 19.0272 112.423 18.6963 112.17 18.4171C111.917 18.1379 111.607 17.9172 111.26 17.7702C110.914 17.6233 110.54 17.5537 110.164 17.5662C109.788 17.5787 109.419 17.6731 109.083 17.8428C108.926 17.9161 108.795 18.0352 108.707 18.1845C108.619 18.3338 108.579 18.5063 108.591 18.6792ZM121.096 19.1081L122.403 23.9762L123.58 19.1081H125.379L123.345 26.3781H121.567L120.24 21.4457L118.891 26.4425H117.092L115.079 19.1724H116.856L118.034 24.0406L119.34 19.1724L121.096 19.1081ZM126.557 26.3781V19.1081H128.484V26.3781H126.557ZM129.726 20.6093V19.1081H130.861V17.1565H132.767V19.1295H134.352V20.6307H132.767V23.9333C132.767 24.6196 133.067 24.9842 133.688 24.9842C133.894 25.0079 134.102 25.0079 134.309 24.9842L134.48 26.4854C134.09 26.6325 133.676 26.7052 133.259 26.6998C132.948 26.7292 132.633 26.6896 132.338 26.5839C132.043 26.4782 131.775 26.309 131.552 26.0881C131.329 25.8672 131.158 25.6001 131.05 25.3056C130.941 25.0111 130.899 24.6964 130.925 24.3837V20.6093H129.726ZM140.84 23.5902L142.339 24.5553C142.057 25.2171 141.579 25.7769 140.971 26.1601C140.363 26.5433 139.652 26.7316 138.934 26.6998C138.429 26.7131 137.926 26.6251 137.456 26.441C136.985 26.2568 136.556 25.9803 136.193 25.6275C135.836 25.2635 135.557 24.8304 135.373 24.3548C135.189 23.8791 135.104 23.3709 135.122 22.8611C135.1 22.3438 135.187 21.8277 135.379 21.347C135.571 20.8663 135.863 20.432 136.236 20.0731C136.959 19.3733 137.929 18.9879 138.934 19.0009C139.682 18.9675 140.424 19.1459 141.076 19.5156C141.651 19.852 142.097 20.3735 142.339 20.9953L140.819 21.9818C140.679 21.613 140.429 21.2961 140.104 21.0737C139.778 20.8513 139.392 20.7341 138.998 20.738C138.739 20.7307 138.481 20.7785 138.241 20.8783C138.001 20.9781 137.785 21.1276 137.607 21.317C137.246 21.7462 137.048 22.2892 137.048 22.8503C137.048 23.4114 137.246 23.9545 137.607 24.3837C137.779 24.5815 137.994 24.7382 138.234 24.8421C138.475 24.946 138.736 24.9945 138.998 24.9842C139.403 24.9921 139.8 24.872 140.133 24.6411C140.448 24.3513 140.69 23.9913 140.84 23.5902ZM150.455 21.4457V26.3781H148.592V22.089C148.621 21.6774 148.49 21.2705 148.228 20.9524C148.083 20.8139 147.911 20.7063 147.724 20.6363C147.536 20.5662 147.336 20.5352 147.136 20.5449C146.892 20.5389 146.65 20.5878 146.428 20.688C146.205 20.7882 146.008 20.9372 145.851 21.124C145.507 21.5378 145.331 22.066 145.358 22.6037V26.3781H143.474V16.1057H145.337V20.2447C145.596 19.8162 145.965 19.465 146.406 19.2274C146.846 18.9898 147.342 18.8746 147.842 18.8936C148.188 18.8747 148.534 18.9279 148.859 19.0497C149.183 19.1715 149.479 19.3593 149.727 19.6013C149.969 19.8416 150.159 20.1295 150.284 20.447C150.409 20.7644 150.468 21.1045 150.455 21.4457ZM127.456 15.9341C127.32 15.9313 127.184 15.9558 127.056 16.0063C126.929 16.0567 126.813 16.1321 126.716 16.228C126.618 16.3238 126.54 16.4383 126.487 16.5646C126.434 16.6909 126.407 16.8265 126.407 16.9635C126.407 17.2479 126.52 17.5207 126.721 17.7217C126.921 17.9228 127.194 18.0358 127.478 18.0358C127.762 18.0358 128.034 17.9228 128.235 17.7217C128.436 17.5207 128.548 17.2479 128.548 16.9635C128.549 16.8228 128.52 16.6834 128.464 16.5542C128.409 16.4249 128.327 16.3084 128.225 16.2119C128.123 16.1154 128.002 16.041 127.869 15.9932C127.737 15.9455 127.597 15.9253 127.456 15.9341ZM98.2476 23.5902V19.1081H100.111V23.2042C100.111 24.3194 100.603 24.877 101.588 24.877C101.822 24.8811 102.055 24.8311 102.266 24.7306C102.478 24.6302 102.664 24.4821 102.809 24.2979C103.135 23.8922 103.302 23.3814 103.28 22.8611V19.1081H105.122V26.3781H103.28V25.3702C103.052 25.7798 102.71 26.1138 102.295 26.331C101.881 26.5482 101.412 26.6392 100.946 26.5926C100.225 26.5755 99.5408 26.2751 99.04 25.7562C98.5064 25.1638 98.2225 24.3876 98.2476 23.5902Z" fill="#0054A6"/>
<path d="M98.2695 39.2239V30.517H101.439C102.153 30.4747 102.858 30.6875 103.43 31.1175C103.665 31.2905 103.855 31.5168 103.985 31.7778C104.116 32.0387 104.182 32.3269 104.18 32.6187C104.186 33.0662 104.038 33.5022 103.761 33.8536C103.484 34.205 103.095 34.4505 102.659 34.5488C103.17 34.6263 103.635 34.8861 103.97 35.2802C104.304 35.6743 104.485 36.1762 104.48 36.6933C104.491 37.0425 104.417 37.3892 104.264 37.7031C104.111 38.0171 103.883 38.2888 103.602 38.4948C102.988 38.9644 102.232 39.2069 101.46 39.181L98.2695 39.2239ZM99.2974 31.3963V34.1842H101.439C101.9 34.2139 102.358 34.0936 102.745 33.8411C102.913 33.7176 103.05 33.5562 103.144 33.3699C103.239 33.1836 103.288 32.9777 103.288 32.7688C103.288 32.5599 103.239 32.354 103.144 32.1677C103.05 31.9814 102.913 31.82 102.745 31.6965C102.358 31.444 101.9 31.3237 101.439 31.3534L99.2974 31.3963ZM99.2974 35.0635V38.3661H101.31C101.866 38.3835 102.416 38.2422 102.895 37.9586C103.083 37.8079 103.234 37.617 103.338 37.3998C103.442 37.1827 103.496 36.9449 103.496 36.7041C103.496 36.4632 103.442 36.2255 103.338 36.0083C103.234 35.7912 103.083 35.6002 102.895 35.4495C102.414 35.1734 101.864 35.0396 101.31 35.0635H99.2974Z" fill="#0054A6"/>
<path d="M106.812 39.2245V30.5176H112.273V31.4397H107.862V34.3134H111.909V35.2356H107.862V38.3452H112.316V39.2674L106.812 39.2245Z" fill="#0054A6"/>
<path d="M115.914 31.6107C115.741 31.7186 115.599 31.8688 115.5 32.047C115.401 32.2252 115.35 32.4256 115.35 32.6294C115.35 32.8331 115.401 33.0335 115.5 33.2118C115.599 33.39 115.741 33.5401 115.914 33.648C116.484 33.993 117.117 34.2191 117.777 34.3128C118.558 34.4036 119.298 34.7078 119.918 35.1921C120.144 35.4018 120.322 35.6578 120.441 35.9428C120.559 36.2278 120.614 36.535 120.603 36.8434C120.61 37.199 120.537 37.5514 120.388 37.8745C120.24 38.1976 120.021 38.483 119.747 38.7092C119.101 39.2148 118.296 39.4733 117.477 39.4383C116.627 39.4803 115.791 39.2138 115.121 38.6877C114.529 38.2004 114.134 37.5147 114.008 36.7576L114.929 36.2644C114.987 36.9136 115.284 37.5177 115.764 37.9586C116.243 38.3584 116.854 38.5649 117.477 38.5376C118.025 38.5818 118.57 38.4129 118.997 38.0658C119.173 37.9326 119.317 37.7611 119.417 37.5642C119.517 37.3673 119.571 37.1501 119.575 36.9292C119.586 36.708 119.541 36.4877 119.443 36.2889C119.346 36.0902 119.2 35.9194 119.019 35.7926C118.492 35.4589 117.901 35.2398 117.284 35.1492C115.357 34.8061 114.415 33.9697 114.415 32.6615C114.411 32.3446 114.483 32.0315 114.625 31.7481C114.766 31.4646 114.973 31.2191 115.228 31.0317C115.846 30.5757 116.603 30.3483 117.37 30.3883C118.071 30.3723 118.759 30.5746 119.34 30.9673C119.89 31.3304 120.304 31.8659 120.518 32.49L119.661 32.9832C119.503 32.4881 119.196 32.0538 118.783 31.7394C118.381 31.4254 117.879 31.2657 117.37 31.289C116.863 31.2429 116.354 31.3553 115.914 31.6107Z" fill="#0054A6"/>
<path d="M122.062 31.4397V30.5176H128.487V31.4397H125.746V39.2245H124.696V31.4397H122.062Z" fill="#0054A6"/>
<path d="M132.77 39.2243V30.5174H135.125C136.306 30.4632 137.461 30.8796 138.337 31.6755C138.751 32.0982 139.074 32.6023 139.284 33.1559C139.494 33.7095 139.587 34.3008 139.558 34.8923C139.584 35.4803 139.489 36.0674 139.279 36.6171C139.069 37.1669 138.749 37.6674 138.337 38.0877C137.458 38.8758 136.304 39.2843 135.125 39.2243H132.77ZM135.125 38.3021C136.029 38.3503 136.918 38.0512 137.609 37.4658C137.93 37.1229 138.178 36.7175 138.336 36.2748C138.495 35.8321 138.561 35.3615 138.53 34.8923C138.565 34.4227 138.501 33.951 138.342 33.5078C138.183 33.0645 137.934 32.6594 137.609 32.3188C136.928 31.712 136.036 31.3964 135.125 31.4396H133.819V38.3021H135.125Z" fill="#0054A6"/>
<path d="M141.867 39.2245V30.5176H147.306V31.4397H142.916V34.3134H146.964V35.2356H142.916V38.3452H147.349V39.2674L141.867 39.2245Z" fill="#0054A6"/>
<path d="M148.957 39.2245L152.405 30.5176H153.497L156.966 39.2245H155.895L154.889 36.651H151.034L150.028 39.2245H148.957ZM152.683 32.4048L151.377 35.7932H154.525L153.218 32.4048C153.111 32.17 153.025 31.9259 152.961 31.6756L152.683 32.4048Z" fill="#0054A6"/>
<path d="M158.699 39.2245V30.5176H159.749V38.3023H164.031V39.2245H158.699Z" fill="#0054A6"/>
<path d="M98.2695 51.8339V43.127H103.837V44.0491H99.2974V47.1802H103.452V48.1023H99.2974V51.8982L98.2695 51.8339Z" fill="#0054A6"/>
<path d="M113.946 47.4811C113.974 48.0771 113.882 48.6727 113.676 49.2327C113.47 49.7926 113.154 50.3054 112.747 50.7408C111.946 51.5267 110.87 51.9669 109.749 51.9669C108.628 51.9669 107.551 51.5267 106.751 50.7408C105.998 49.8383 105.586 48.6998 105.586 47.524C105.586 46.3481 105.998 45.2096 106.751 44.3071C107.551 43.5212 108.628 43.0811 109.749 43.0811C110.87 43.0811 111.946 43.5212 112.747 44.3071C113.548 45.1656 113.979 46.3062 113.946 47.4811ZM107.522 50.0974C107.808 50.408 108.156 50.6558 108.543 50.8253C108.93 50.9948 109.348 51.0823 109.77 51.0823C110.193 51.0823 110.61 50.9948 110.997 50.8253C111.384 50.6558 111.732 50.408 112.019 50.0974C112.637 49.3697 112.958 48.4355 112.918 47.4811C112.961 46.5327 112.639 45.604 112.019 44.8862C111.736 44.5697 111.389 44.3166 111.001 44.1433C110.614 43.9701 110.195 43.8805 109.77 43.8805C109.346 43.8805 108.926 43.9701 108.539 44.1433C108.152 44.3166 107.805 44.5697 107.522 44.8862C106.917 45.6115 106.604 46.5368 106.644 47.4811C106.602 48.4284 106.907 49.3585 107.5 50.0974H107.522Z" fill="#0054A6"/>
<path d="M121.417 51.8343L119.275 48.0599H117.305V51.8343H116.277V43.1274H119.746C120.48 43.0918 121.2 43.3371 121.759 43.8137C122.01 44.036 122.209 44.3105 122.342 44.6181C122.475 44.9256 122.539 45.2586 122.53 45.5937C122.561 45.8763 122.535 46.1621 122.454 46.4345C122.373 46.707 122.239 46.9606 122.059 47.1806C121.659 47.6355 121.114 47.9385 120.517 48.0385L122.659 51.8772L121.417 51.8343ZM117.305 44.0496V47.1806H119.447C119.95 47.2057 120.447 47.0623 120.86 46.7732C121.029 46.6379 121.164 46.4643 121.253 46.2667C121.343 46.0692 121.384 45.8532 121.374 45.6366C121.386 45.4197 121.345 45.2031 121.256 45.0053C121.166 44.8074 121.031 44.6341 120.86 44.4999C120.452 44.2013 119.951 44.0569 119.447 44.0925L117.305 44.0496Z" fill="#0054A6"/>
<path d="M128.998 51.8339V48.2524L126.129 43.127H127.264L129.234 46.7941C129.344 46.9931 129.438 47.2011 129.512 47.4161L129.791 46.7941L131.761 43.127H132.896L130.026 48.2524V51.8339H128.998Z" fill="#0054A6"/>
<path d="M142.128 47.4811C142.151 48.0785 142.056 48.6747 141.846 49.2345C141.637 49.7943 141.317 50.3065 140.907 50.7408C140.106 51.5267 139.03 51.9669 137.909 51.9669C136.788 51.9669 135.712 51.5267 134.911 50.7408C134.158 49.8383 133.746 48.6998 133.746 47.524C133.746 46.3481 134.158 45.2096 134.911 44.3071C135.712 43.5212 136.788 43.0811 137.909 43.0811C139.03 43.0811 140.106 43.5212 140.907 44.3071C141.714 45.1634 142.153 46.3036 142.128 47.4811ZM135.703 50.0974C135.99 50.408 136.338 50.6558 136.725 50.8253C137.112 50.9948 137.529 51.0823 137.952 51.0823C138.374 51.0823 138.792 50.9948 139.179 50.8253C139.566 50.6558 139.914 50.408 140.2 50.0974C140.818 49.3697 141.139 48.4355 141.1 47.4811C141.142 46.5327 140.821 45.604 140.2 44.8862C139.917 44.5697 139.57 44.3166 139.183 44.1433C138.796 43.9701 138.376 43.8805 137.952 43.8805C137.528 43.8805 137.108 43.9701 136.721 44.1433C136.333 44.3166 135.987 44.5697 135.703 44.8862C135.098 45.6115 134.785 46.5368 134.825 47.4811C134.778 48.4257 135.075 49.3555 135.661 50.0974H135.703Z" fill="#0054A6"/>
<path d="M150.733 43.127V48.8958C150.76 49.3122 150.7 49.7296 150.556 50.1212C150.413 50.5128 150.188 50.8698 149.898 51.169C149.24 51.7092 148.415 52.0043 147.564 52.0043C146.713 52.0043 145.888 51.7092 145.23 51.169C144.932 50.8735 144.699 50.5182 144.548 50.1264C144.397 49.7346 144.33 49.3153 144.352 48.8958V43.127H145.38V48.9602C145.365 49.5241 145.573 50.0712 145.958 50.4828C146.403 50.8719 146.973 51.0864 147.564 51.0864C148.154 51.0864 148.725 50.8719 149.17 50.4828C149.547 50.0678 149.747 49.5211 149.727 48.9602V43.127H150.733Z" fill="#0054A6"/>
<path d="M99.6406 64.337L97.2422 55.7588H98.9553L100.347 61.2703C100.347 61.6778 100.519 61.9995 100.561 62.2139L100.754 61.2489L102.189 55.7588H103.859L105.294 61.2489L105.487 62.2139L105.701 61.2703L107.071 55.7588H108.806L106.407 64.337H104.651L103.024 58.032L101.396 64.337H99.6406Z" fill="#0054A6"/>
<path d="M110.219 64.337V55.7588H111.846V64.337H110.219Z" fill="#0054A6"/>
<path d="M114.16 64.337V55.7588H115.83L119.449 61.2918C119.599 61.5082 119.728 61.7379 119.835 61.978V55.7588H121.419V64.337H119.749L116.13 58.7612C115.996 58.5471 115.874 58.3251 115.766 58.0964V64.337H114.16Z" fill="#0054A6"/>
<path d="M123.73 64.337V55.7588H125.401L129.02 61.2918L129.405 61.978V55.7588H130.99V64.337H129.32L125.701 58.7612C125.486 58.4395 125.379 58.2036 125.315 58.0964V64.337H123.73Z" fill="#0054A6"/>
<path d="M133.305 64.337V55.7588H139.301V57.2385H134.911V59.233H138.937V60.7127H134.911V63.0074H139.322V64.337H133.305Z" fill="#0054A6"/>
<path d="M146.429 64.3365L144.437 60.798H143.045V64.3365H141.332V55.7583H145.058C145.824 55.7458 146.575 55.9787 147.199 56.4231C147.473 56.6337 147.692 56.9075 147.838 57.2212C147.983 57.5348 148.051 57.8791 148.035 58.2245C148.042 58.8157 147.849 59.392 147.487 59.8593C147.126 60.3266 146.617 60.6575 146.043 60.798L148.184 64.4652L146.429 64.3365ZM143.045 57.1523V59.4469H145.187C146.15 59.4469 146.643 59.0609 146.643 58.3103C146.643 57.5597 146.15 57.1523 145.187 57.1523H143.045Z" fill="#0054A6"/>
<path d="M152.039 63.2643L155.401 60.0475C155.694 59.7658 155.959 59.4571 156.193 59.1253C156.339 58.8709 156.413 58.5819 156.408 58.2889C156.418 58.123 156.393 57.9566 156.334 57.8012C156.275 57.6457 156.183 57.5049 156.065 57.3882C155.8 57.1536 155.455 57.0307 155.101 57.0451C154.744 57.0257 154.393 57.1404 154.116 57.3668C153.988 57.4776 153.886 57.6164 153.819 57.7725C153.753 57.9286 153.722 58.0979 153.731 58.2675C153.734 58.4741 153.778 58.6781 153.859 58.868L152.253 59.1682C152.145 58.851 152.094 58.5169 152.103 58.1817C152.1 57.8372 152.172 57.4961 152.312 57.1816C152.452 56.867 152.659 56.5864 152.917 56.3588C153.506 55.8374 154.272 55.5613 155.058 55.5868C155.837 55.5346 156.605 55.7885 157.2 56.2945C157.451 56.521 157.65 56.7994 157.783 57.1104C157.916 57.4214 157.98 57.7577 157.971 58.0959C157.987 58.6106 157.869 59.1207 157.628 59.5757C157.32 60.1305 156.922 60.6304 156.45 61.0554L154.502 62.9641H157.971V64.3366H152.039V63.2643Z" fill="#0054A6"/>
<path d="M166.152 56.8097C166.915 57.7114 167.312 58.867 167.266 60.048C167.327 61.2375 166.928 62.4049 166.152 63.3077C165.795 63.6998 165.36 64.013 164.875 64.2273C164.39 64.4416 163.866 64.5523 163.336 64.5523C162.806 64.5523 162.282 64.4416 161.797 64.2273C161.312 64.013 160.877 63.6998 160.52 63.3077C159.754 62.3995 159.356 61.236 159.407 60.048C159.394 58.8574 159.821 57.704 160.606 56.8097C160.959 56.4116 161.393 56.0931 161.878 55.8749C162.364 55.6567 162.89 55.5439 163.422 55.5439C163.954 55.5439 164.48 55.6567 164.965 55.8749C165.45 56.0931 165.884 56.4116 166.238 56.8097H166.152ZM161.676 62.1926C161.876 62.4453 162.13 62.6498 162.419 62.7909C162.708 62.932 163.025 63.006 163.347 63.0075C163.667 63.0143 163.984 62.9439 164.271 62.802C164.558 62.6601 164.806 62.4511 164.996 62.1926C165.392 61.5279 165.601 60.7684 165.601 59.9944C165.601 59.2204 165.392 58.4608 164.996 57.7962C164.806 57.5377 164.558 57.3286 164.271 57.1868C163.984 57.0449 163.667 56.9744 163.347 56.9813C163.025 56.9828 162.708 57.0568 162.419 57.1979C162.13 57.339 161.876 57.5435 161.676 57.7962C161.28 58.4608 161.071 59.2204 161.071 59.9944C161.071 60.7684 161.28 61.5279 161.676 62.1926Z" fill="#0054A6"/>
<path d="M168.379 58.3322V56.8095C168.794 56.8283 169.207 56.7397 169.578 56.5522C169.898 56.3451 170.156 56.0564 170.328 55.7158H171.848V64.337H170.221V57.7532C170.012 57.9741 169.744 58.1305 169.45 58.2035C169.101 58.2994 168.74 58.3428 168.379 58.3322Z" fill="#0054A6"/>
<path d="M174.246 61.7415L175.788 62.0846C175.76 62.2118 175.76 62.3434 175.788 62.4706C175.782 62.5989 175.81 62.7265 175.87 62.8399C175.931 62.9532 176.021 63.048 176.131 63.114C176.394 63.278 176.699 63.3601 177.009 63.3499C177.278 63.3486 177.542 63.2766 177.775 63.1411C178.008 63.0057 178.202 62.8115 178.336 62.5778C178.746 61.9383 178.962 61.1933 178.957 60.4333C178.725 60.7373 178.422 60.9801 178.075 61.1408C177.729 61.3014 177.348 61.3751 176.966 61.3554C176.176 61.3607 175.412 61.07 174.825 60.5405C174.539 60.2649 174.316 59.9304 174.172 59.5601C174.028 59.1899 173.965 58.7926 173.989 58.3959C173.979 57.9951 174.054 57.5966 174.209 57.2269C174.364 56.8572 174.596 56.5247 174.889 56.2514C175.519 55.6747 176.348 55.3669 177.202 55.3936C177.674 55.3701 178.146 55.4522 178.583 55.634C179.02 55.8157 179.411 56.0925 179.728 56.4444C180.36 57.3047 180.671 58.3595 180.606 59.4253C180.582 60.4876 180.334 61.5327 179.878 62.4921C179.654 63.1219 179.243 63.6681 178.701 64.0576C178.151 64.4268 177.499 64.6143 176.838 64.5937C176.113 64.6431 175.396 64.4215 174.825 63.9718C174.597 63.7811 174.415 63.5412 174.292 63.2701C174.17 62.999 174.11 62.7037 174.118 62.4063C174.127 62.1795 174.171 61.9554 174.246 61.7415ZM177.073 60.0473C177.505 60.0563 177.925 59.9033 178.251 59.6183C178.551 59.3033 178.718 58.8848 178.718 58.4496C178.718 58.0144 178.551 57.5958 178.251 57.2808C177.925 56.9958 177.505 56.8428 177.073 56.8519C176.641 56.8469 176.223 56.9993 175.895 57.2808C175.729 57.427 175.598 57.6092 175.513 57.8136C175.428 58.018 175.39 58.2391 175.403 58.4603C175.393 58.6779 175.433 58.8949 175.518 59.0953C175.603 59.2957 175.732 59.4744 175.895 59.6183C176.223 59.8998 176.641 60.0522 177.073 60.0473Z" fill="#0054A6"/>
</svg>
