<svg width="473" height="473" viewBox="0 0 473 473" xmlns="http://www.w3.org/2000/svg" xmlns:xlink="http://www.w3.org/1999/xlink"><title>boiler-protect</title><defs><path id="a" d="M4.102 149.655h186.663v241.908H4.102z"/><path id="b" d="M0 448.798h210.38V0H0z"/></defs><g fill="none" fill-rule="evenodd"><ellipse fill="#FFF9F9" cx="236.36" cy="236.469" rx="236.36" ry="236.469"/><ellipse fill="#FFEEEC" cx="236.36" cy="236.469" rx="177.652" ry="177.734"/><ellipse fill="#FFE3E1" cx="236.36" cy="236.469" rx="121.997" ry="122.053"/><g transform="translate(140.954 -30.023)"><use fill="#FFF" xlink:href="#a"/><path stroke="#979797" d="M4.602 150.155h185.663v240.908H4.602z"/><path d="M125.21 81.285c.295 0 .59-.221.59-.59a.582.582 0 0 0-.59-.592h-9.224a.583.583 0 0 0-.59.592c0 .295.22.59.59.59h9.224zm-11.659-.518a.58.58 0 0 0-.59-.59h-2.95a.582.582 0 0 0-.593.59c0 .295.223.59.593.59h2.95c.295-.072.59-.295.59-.59m-7.904 36.967a.58.58 0 0 0-.59-.59h-9.223a.58.58 0 0 0-.59.59c0 .295.22.59.59.59h9.298c.295 0 .515-.295.515-.59m-12.175 0a.58.58 0 0 0-.59-.59H89.93a.58.58 0 0 0-.59.59c0 .295.221.59.59.59h2.953c.295 0 .59-.295.59-.59m47.307-63.898a.567.567 0 0 0-.147.37c0 .146.074.294.146.369.22.22.59.22.813 0l1.254-1.254a.577.577 0 0 0 0-.813.577.577 0 0 0-.813 0l-1.254 1.328zm-3.985 4.058a.572.572 0 0 0-.147.369c0 .148.075.295.147.369.22.22.59.22.812 0l1.254-1.254a.577.577 0 0 0 0-.812.582.582 0 0 0-.813 0l-1.253 1.328zm-.222-4.87c0 .146.075.295.149.37l1.254 1.253c.22.223.59.223.812 0a.58.58 0 0 0 0-.81l-1.256-1.254a.575.575 0 0 0-.81 0c-.074.146-.149.295-.149.441m4.059 3.984a.58.58 0 0 0 .146.37l1.256 1.253c.221.223.59.223.813 0a.58.58 0 0 0 0-.81l-1.256-1.254a.577.577 0 0 0-.813 0c-.072.22-.146.37-.146.441M72.959 77.742a.58.58 0 0 0 0-.81.577.577 0 0 0-.813 0l-1.253 1.253a.556.556 0 0 0-.15.37c0 .146.075.294.15.369.22.22.59.22.812 0l1.254-1.182zm-3.985 3.984a.58.58 0 0 0 0-.81.577.577 0 0 0-.812 0l-1.254 1.254a.556.556 0 0 0-.149.369c0 .146.075.295.149.37.22.22.59.22.813 0l1.253-1.183zm0-3.541l-1.253-1.253a.577.577 0 0 0-.813 0 .556.556 0 0 0-.149.369c0 .146.075.295.149.37l1.254 1.253c.223.22.592.22.812 0 .22-.149.22-.518 0-.739m3.985 4.058l-1.254-1.254a.577.577 0 0 0-.812 0 .561.561 0 0 0-.15.37c0 .145.075.294.15.368l1.253 1.254c.223.22.592.22.813 0 .22-.223.22-.518 0-.738m33.057 16.455a.581.581 0 0 0 0-.813.582.582 0 0 0-.812 0l-1.254 1.254a.566.566 0 0 0-.149.369c0 .148.075.297.15.369.22.223.589.223.812 0l1.253-1.18zm-4.058 3.984c.22-.22.22-.59 0-.813a.579.579 0 0 0-.81 0l-1.257 1.254a.566.566 0 0 0-.148.37c0 .148.074.296.148.368.22.223.59.223.813 0l1.254-1.18zm0-3.542l-1.254-1.254a.577.577 0 0 0-.813 0 .561.561 0 0 0-.148.369c0 .146.074.295.148.37l1.256 1.253c.22.22.59.22.81 0 .221-.149.221-.518 0-.738m4.059 4.058l-1.253-1.253a.577.577 0 0 0-.813 0 .556.556 0 0 0-.149.369c0 .146.075.295.15.369l1.253 1.253a.58.58 0 0 0 .812 0c.221-.222.221-.517 0-.738M136.5 33.471a2.88 2.88 0 0 0 2.877 2.877 2.88 2.88 0 0 0 2.879-2.877 2.88 2.88 0 0 0-2.88-2.876c-1.548 0-2.876 1.326-2.876 2.876m4.723 0c0 .96-.813 1.772-1.772 1.772a1.797 1.797 0 0 1-1.771-1.772c0-.958.812-1.77 1.771-1.77.959 0 1.772.812 1.772 1.77m-63.469 74.375a2.88 2.88 0 0 0-2.876-2.876 2.88 2.88 0 0 0-2.88 2.876 2.883 2.883 0 0 0 2.88 2.879c1.548.072 2.876-1.256 2.876-2.879m-4.722 0c0-.959.813-1.771 1.771-1.771.96 0 1.772.812 1.772 1.771 0 .959-.813 1.771-1.772 1.771-.958.075-1.771-.738-1.771-1.771m-37.271 2.327a2.88 2.88 0 0 0-2.876-2.876 2.88 2.88 0 0 0-2.88 2.876 2.883 2.883 0 0 0 2.88 2.879c1.548.072 2.876-1.256 2.876-2.879m-4.722 0c0-.959.813-1.771 1.772-1.771.958 0 1.771.812 1.771 1.771 0 .959-.813 1.772-1.771 1.772-.96.074-1.772-.739-1.772-1.772m-1.275-20.988a2.88 2.88 0 0 0-2.877-2.876 2.88 2.88 0 0 0-2.879 2.876 2.883 2.883 0 0 0 2.88 2.88c1.548.071 2.876-1.257 2.876-2.88m-4.723 0c0-.958.813-1.77 1.772-1.77.959 0 1.771.812 1.771 1.77 0 .96-.812 1.772-1.771 1.772-.96.074-1.772-.738-1.772-1.772m123.847 24.565a2.88 2.88 0 0 0 2.877 2.876 2.88 2.88 0 0 0 2.879-2.876 2.88 2.88 0 0 0-2.88-2.877c-1.548-.074-2.876 1.254-2.876 2.877m4.722 0c0 .958-.812 1.771-1.771 1.771a1.797 1.797 0 0 1-1.772-1.771c0-.96.813-1.772 1.772-1.772.959-.074 1.771.739 1.771 1.772m-17.037-38.443v10.92c0 .295.22.59.59.59.295 0 .592-.22.592-.59v-10.92c-.074-.367-.297-.59-.592-.59a.583.583 0 0 0-.59.59m1.107 18.003v-3.54a.582.582 0 0 0-.59-.592.583.583 0 0 0-.59.592v3.54c0 .295.221.59.59.59a.58.58 0 0 0 .59-.59m2.657-7.6v7.6c0 .297.22.591.59.591s.59-.223.59-.592v-7.598c0-.295-.22-.59-.59-.59s-.59.295-.59.59m0-5.755v2.435c0 .295.22.59.59.59s.59-.223.59-.59v-2.435c0-.295-.22-.59-.59-.59s-.59.295-.59.59M70.523 53.91V42.988a.58.58 0 0 0-.59-.59c-.294 0-.59.22-.59.59v10.92c0 .295.221.59.59.59.295-.074.59-.295.59-.59m-1.107-18.075v3.54c0 .297.22.592.59.592a.585.585 0 0 0 .592-.592v-3.54a.583.583 0 0 0-.592-.59c-.37.074-.59.295-.59.59m-2.656 7.674v-7.673a.582.582 0 0 0-.59-.592.585.585 0 0 0-.591.592v7.598c0 .295.222.59.592.59.369 0 .59-.22.59-.515m-.001 5.68v-2.433a.582.582 0 0 0-.59-.592.585.585 0 0 0-.591.592v2.433c0 .295.222.59.592.59.369 0 .59-.295.59-.59m60.81-4.131V50c0 .292.221.59.59.59.295 0 .59-.224.59-.59v-4.945a.58.58 0 0 0-.59-.59.582.582 0 0 0-.59.59m-45.167 9.74V40.259a.58.58 0 0 0-.59-.59.584.584 0 0 0-.592.59v14.536c0 .295.223.59.592.59.295 0 .59-.295.59-.59m28.048 6.567c.813-.81.813-2.287 0-3.172l-6.714-6.714a2.223 2.223 0 0 0-3.172 0l-.297.293c-.441.443-.664.961-.664 1.55 0 .59.223 1.18.664 1.55l6.714 6.713c.444.444.962.664 1.551.664.59 0 1.18-.22 1.549-.664l.37-.22zm-2.656-.516l-6.714-6.788a1.07 1.07 0 0 1 0-1.55l.22-.221a1.07 1.07 0 0 1 1.551 0L109.568 59c.22.22.294.515.294.812 0 .295-.148.59-.294.81l-.295.298c-.223.22-.518.295-.813.295a7.113 7.113 0 0 1-.664-.37zM51.823 130.94c.813-.81.813-2.287 0-3.172l-6.714-6.714a2.223 2.223 0 0 0-3.172 0l-.297.293c-.441.443-.664.96-.664 1.55 0 .59.223 1.18.664 1.549l6.714 6.714c.444.443.961.664 1.551.664s1.18-.22 1.549-.664l.369-.22zm-2.656-.516l-6.715-6.788a1.07 1.07 0 0 1 0-1.551l.221-.22a1.07 1.07 0 0 1 1.55 0l6.715 6.713c.221.221.295.516.295.813 0 .295-.148.59-.295.81l-.294.297c-.223.22-.518.295-.813.295a7.113 7.113 0 0 1-.664-.369zm42.691-67.217c0 .146.072.294.146.369l6.273 6.273c.221.22.59.22.813 0a.582.582 0 0 0 0-.813l-6.273-6.27a.577.577 0 0 0-.813 0c-.074.146-.146.294-.146.44" fill="#334557"/><mask id="c" fill="#fff"><use xlink:href="#b"/></mask><path fill="#334557" mask="url(#c)" d="M.89 134.846h192.039v-2.157H.889zm170.868-17.007a2.88 2.88 0 0 0 2.876 2.876 2.88 2.88 0 0 0 2.88-2.876 2.88 2.88 0 0 0-2.88-2.877c-1.548 0-2.876 1.326-2.876 2.877m4.722 0c0 .959-.812 1.771-1.771 1.771a1.797 1.797 0 0 1-1.772-1.771c0-.959.813-1.771 1.772-1.771.959 0 1.771.812 1.771 1.77m12.56-30.69a2.88 2.88 0 0 0 2.877 2.876 2.88 2.88 0 0 0 2.879-2.876 2.88 2.88 0 0 0-2.88-2.877c-1.548 0-2.876 1.326-2.876 2.877m4.722 0c0 .958-.812 1.771-1.771 1.771a1.797 1.797 0 0 1-1.772-1.771c0-.96.813-1.772 1.772-1.772.959 0 1.771.813 1.771 1.772m-17.872 3.856c0 .146.074.295.146.369l1.256 1.254a.58.58 0 0 0 .813 0 .58.58 0 0 0 0-.81l-1.256-1.254a.577.577 0 0 0-.813 0c-.072.22-.146.369-.146.44M6.199 67.662a.58.58 0 0 0 0-.81.577.577 0 0 0-.813 0l-1.254 1.253a.556.556 0 0 0-.148.37c0 .145.074.294.148.368.22.22.59.22.813 0l1.254-1.181zm-3.985 3.984a.58.58 0 0 0 0-.81.577.577 0 0 0-.813 0L.148 72.089a.556.556 0 0 0-.149.37c0 .146.074.294.149.369.22.22.59.22.812 0l1.254-1.182zm0-3.541L.96 66.85a.577.577 0 0 0-.812 0 .556.556 0 0 0-.149.37.56.56 0 0 0 .149.368L1.4 68.843c.223.22.592.22.813 0 .22-.148.22-.518 0-.738m3.986 4.057L4.945 70.91a.577.577 0 0 0-.813 0 .561.561 0 0 0-.148.369c0 .146.074.295.148.369L5.386 72.9c.223.22.592.22.813 0 .22-.223.22-.518 0-.739M4.762 331.9h183.586v-4.642H4.762zm63.934 57.328a2.323 2.323 0 0 0-2.321 2.321v31.711a2.323 2.323 0 0 0 4.643 0v-31.71a2.323 2.323 0 0 0-2.322-2.322m27.861 0a2.323 2.323 0 0 0-2.322 2.321v54.927a2.323 2.323 0 0 0 4.644 0v-54.927a2.323 2.323 0 0 0-2.322-2.321m27.861 0a2.323 2.323 0 0 0-2.322 2.321v31.711a2.323 2.323 0 0 0 4.644 0v-31.71a2.323 2.323 0 0 0-2.322-2.322m35.892-17.549c-6.415 0-11.634-5.217-11.634-11.631 0-6.413 5.219-11.634 11.634-11.634s11.632 5.221 11.632 11.634c0 6.414-5.217 11.63-11.632 11.63m0-27.907c-8.976 0-16.278 7.301-16.278 16.277 0 8.973 7.302 16.274 16.278 16.274 8.973 0 16.275-7.301 16.275-16.274 0-8.976-7.302-16.277-16.275-16.277M26.048 356.542a5.823 5.823 0 0 0-5.816 5.815 5.824 5.824 0 0 0 5.816 5.818 5.824 5.824 0 0 0 5.816-5.818 5.823 5.823 0 0 0-5.816-5.815m20.896 0a5.823 5.823 0 0 0-5.816 5.815 5.824 5.824 0 0 0 5.816 5.818 5.824 5.824 0 0 0 5.816-5.818 5.823 5.823 0 0 0-5.816-5.815"/><path d="M5.925 387.807H187.19V150.444H5.925v237.363zM1.28 392.45h190.552V145.801H1.279v246.65z" fill="#F06A63" mask="url(#c)"/><path d="M104.135 283.282c.722 4.727-2.67 6.173-2.67 6.173 1.835-9.509-7.45-18.01-7.45-18.01.722 6.505-7.12 13.838-7.12 21.57 0 6.112 4.954 11.066 11.067 11.066 6.11 0 11.065-4.729 11.065-10.955 0-7.564-4.892-9.844-4.892-9.844M210.214 67.655a.58.58 0 0 0 0-.81.577.577 0 0 0-.813 0l-1.253 1.254a.556.556 0 0 0-.149.369c0 .146.074.295.149.37.22.22.59.22.812 0l1.254-1.183zm-3.984 3.985a.58.58 0 0 0 0-.81.577.577 0 0 0-.813 0l-1.254 1.253a.556.556 0 0 0-.148.37c0 .146.074.294.148.368.22.221.59.221.813 0l1.253-1.181zm0-3.541l-1.254-1.254a.577.577 0 0 0-.813 0 .556.556 0 0 0-.148.37c0 .145.074.294.148.368l1.254 1.254c.223.22.592.22.812 0 .221-.149.221-.518 0-.738m3.985 4.057l-1.254-1.254a.577.577 0 0 0-.812 0 .561.561 0 0 0-.149.37c0 .146.074.294.149.369l1.253 1.253c.223.22.592.22.813 0 .22-.223.22-.517 0-.738" fill="#334557" mask="url(#c)"/></g></g></svg>