<svg width="530" height="589" viewBox="0 0 530 589" xmlns="http://www.w3.org/2000/svg" xmlns:xlink="http://www.w3.org/1999/xlink"><title>Gas Safe installer Gas Safe Installer</title><defs><linearGradient x1="0%" y1="50%" x2="49.669%" y2="50%" id="a"><stop stop-color="#F5AD8C" offset="0%"/><stop stop-color="#FB6058" offset="49.669%"/><stop stop-color="#F88672" offset="100%"/></linearGradient><linearGradient x1="0%" y1="50%" y2="50%" id="d"><stop stop-color="#F5AD8C" offset="0%"/><stop stop-color="#F88672" offset="50.265%"/><stop stop-color="#FB6058" offset="100%"/></linearGradient><ellipse id="c" cx="260.393" cy="260.008" rx="195.68" ry="195.395"/><filter x="-3.8%" y="-3.8%" width="107.7%" height="107.7%" filterUnits="objectBoundingBox" id="b"><feOffset in="SourceAlpha" result="shadowOffsetOuter1"/><feGaussianBlur stdDeviation="5" in="shadowOffsetOuter1" result="shadowBlurOuter1"/><feColorMatrix values="0 0 0 0 1 0 0 0 0 1 0 0 0 0 1 0 0 0 0.5 0" in="shadowBlurOuter1"/></filter><ellipse id="f" cx="260.393" cy="260.008" rx="134.377" ry="134.181"/><filter x="-5.6%" y="-5.6%" width="111.2%" height="111.2%" filterUnits="objectBoundingBox" id="e"><feOffset in="SourceAlpha" result="shadowOffsetOuter1"/><feGaussianBlur stdDeviation="5" in="shadowOffsetOuter1" result="shadowBlurOuter1"/><feColorMatrix values="0 0 0 0 1 0 0 0 0 1 0 0 0 0 1 0 0 0 0.1 0" in="shadowBlurOuter1"/></filter><ellipse id="h" cx="260.393" cy="260.008" rx="90.835" ry="90.703"/><filter x="-8.3%" y="-8.3%" width="116.5%" height="116.5%" filterUnits="objectBoundingBox" id="g"><feOffset in="SourceAlpha" result="shadowOffsetOuter1"/><feGaussianBlur stdDeviation="5" in="shadowOffsetOuter1" result="shadowBlurOuter1"/><feColorMatrix values="0 0 0 0 1 0 0 0 0 1 0 0 0 0 1 0 0 0 0.1 0" in="shadowBlurOuter1"/></filter><ellipse id="j" cx="260.393" cy="260.008" rx="59.443" ry="59.357"/><filter x="-12.6%" y="-12.6%" width="125.2%" height="125.3%" filterUnits="objectBoundingBox" id="i"><feOffset in="SourceAlpha" result="shadowOffsetOuter1"/><feGaussianBlur stdDeviation="5" in="shadowOffsetOuter1" result="shadowBlurOuter1"/><feColorMatrix values="0 0 0 0 1 0 0 0 0 1 0 0 0 0 1 0 0 0 0.1 0" in="shadowBlurOuter1"/></filter><ellipse id="l" cx="260.393" cy="260.008" rx="34.384" ry="34.334"/><filter x="-21.8%" y="-21.8%" width="143.6%" height="143.7%" filterUnits="objectBoundingBox" id="k"><feOffset in="SourceAlpha" result="shadowOffsetOuter1"/><feGaussianBlur stdDeviation="5" in="shadowOffsetOuter1" result="shadowBlurOuter1"/><feColorMatrix values="0 0 0 0 1 0 0 0 0 1 0 0 0 0 1 0 0 0 0.1 0" in="shadowBlurOuter1"/></filter><ellipse id="n" cx="260.393" cy="260.008" rx="17.512" ry="17.487"/><filter x="-42.8%" y="-42.9%" width="185.7%" height="185.8%" filterUnits="objectBoundingBox" id="m"><feOffset in="SourceAlpha" result="shadowOffsetOuter1"/><feGaussianBlur stdDeviation="5" in="shadowOffsetOuter1" result="shadowBlurOuter1"/><feColorMatrix values="0 0 0 0 1 0 0 0 0 1 0 0 0 0 1 0 0 0 0.1 0" in="shadowBlurOuter1"/></filter><path id="o" d="M65.316.478v115.126H1.004V.478h64.312z"/><path id="q" d="M.125.515h149.6v68.89H.125V.515z"/><path id="s" d="M0 460.544h271.202V.68H0z"/></defs><g fill="none" fill-rule="evenodd"><g transform="translate(.228 69)" opacity=".6"><ellipse fill="url(#a)" opacity=".05" cx="260.393" cy="260.008" rx="260.346" ry="259.966"/><g opacity=".1"><use fill="#000" filter="url(#b)" xlink:href="#c"/><use fill="url(#d)" xlink:href="#c"/></g><g opacity=".15"><use fill="#000" filter="url(#e)" xlink:href="#f"/><use fill="url(#d)" xlink:href="#f"/></g><g opacity=".2"><use fill="#000" filter="url(#g)" xlink:href="#h"/><use fill="url(#d)" xlink:href="#h"/></g><g opacity=".25"><use fill="#000" filter="url(#i)" xlink:href="#j"/><use fill="url(#d)" xlink:href="#j"/></g><g opacity=".3"><use fill="#000" filter="url(#k)" xlink:href="#l"/><use fill="url(#d)" xlink:href="#l"/></g><g opacity=".3"><use fill="#000" filter="url(#m)" xlink:href="#n"/><use fill="url(#d)" xlink:href="#n"/></g></g><g transform="translate(125.68 -.006)"><path d="M184.13 201.925c1.464.488 1.952 1.985 1.952 2.96v51.945c0 .488-.488 1.497-.976 1.985s-1.003.98-1.986.98H88.11c-1.474 0-2.965-1.468-2.965-2.965v-51.944c0-1.464 1.003-2.473 1.979-2.96 31.168-11.88 66.329-11.88 97.006 0zM91.072 253.87h88.598v-46.51c-28.23-10.38-59.88-10.38-88.598 0v46.51z" fill="#334557"/><g transform="translate(205.887 215.922)"><mask id="p" fill="#fff"><use xlink:href="#o"/></mask><path d="M5.464.844c-.983-.488-1.986-.488-2.97 0-.975.488-1.49 1.497-1.49 2.961v102.398c0 1.49 1.49 2.961 2.962 2.961 1.498 0 2.962-1.497 2.962-2.96V9.241c32.66 24.736 52.455 62.822 52.455 103.4 0 1.498 1.497 2.962 2.968 2.962 1.495 0 2.966-1.49 2.966-2.961C65.343 68.117 43.07 26.068 5.464.844" fill="#334557" mask="url(#p)"/></g><path d="M63.363 216.278c-.983-.488-2.474-.488-2.962 0C22.272 241.502 0 283.551 0 328.565c0 1.497 1.497 2.96 2.962 2.96 1.497 0 2.972-1.49 2.972-2.96 0-41.067 19.3-79.153 52.454-103.889v96.954c0 1.497 1.491 2.968 2.963 2.968 1.497 0 2.962-1.497 2.962-2.968V218.751c.514-1.009.026-1.985-.95-2.473M209.391 61.359a13.638 13.638 0 0 1-7.79 7.362c-6.456 5.135-29.15 11.913-65.774 11.913-36.216 0-58.807-6.628-65.545-11.74a13.635 13.635 0 0 1-8.16-7.32c-.786 1.368-1.218 2.829-1.218 4.382 0 16.076 44.807 21.908 74.923 21.908s74.923-5.832 74.923-21.908c0-1.636-.489-3.166-1.359-4.597" fill="#334557"/><path d="M203.273 49.267v6.718c0 1.65-.648 3.14-1.68 4.269 5.804 10.645 9.105 22.844 9.105 35.796 0 41.385-33.682 75.05-75.082 75.05-41.403 0-75.086-33.665-75.086-75.05a74.573 74.573 0 0 1 9.179-35.925c-.966-1.116-1.57-2.55-1.57-4.14v-6.974C58.8 62.355 53.3 78.57 53.3 96.05c0 45.368 36.927 82.28 82.315 82.28 45.385 0 82.311-36.912 82.311-82.28 0-17.37-5.426-33.49-14.654-46.783" fill="#334557"/><g transform="translate(60.78 .165)"><mask id="r" fill="#fff"><use xlink:href="#q"/></mask><path d="M33.236 7.742h83.44c14.236 0 25.816 11.578 25.816 25.804V55.82a6.366 6.366 0 0 1-6.36 6.36H13.714a6.365 6.365 0 0 1-6.356-6.36V33.613c0-14.267 11.61-25.871 25.879-25.871M9.499 68.728c1.328.435 2.743.677 4.214.677h122.42c1.65 0 3.224-.308 4.689-.85a13.658 13.658 0 0 0 7.79-7.362 13.552 13.552 0 0 0 1.113-5.374V33.546c0-18.213-14.824-33.034-33.049-33.034h-83.44C14.978.512.125 15.36.125 33.612V55.82c0 1.995.441 3.884 1.215 5.59a13.644 13.644 0 0 0 8.16 7.32" fill="#334557" mask="url(#r)"/></g><mask id="t" fill="#fff"><use xlink:href="#s"/></mask><path fill="#FEFEFE" mask="url(#t)" d="M90.42 392.989h90.046V279.514H90.421z"/><path d="M101.94 371.706v4.87h3.98c1.429 0 2.219-1.222 2.219-2.423 0-1.146-.79-2.447-2.298-2.447h-3.902zm3.393-2.728c1.172 0 1.886-.943 1.886-2.118 0-1.248-.714-2.038-1.989-2.038h-3.29v4.156h3.393zm2.959 1.122c2.195.534 3.264 2.575 3.264 4.106 0 2.854-2.039 5.277-5.46 5.277h-7.421v-17.569h6.887c3.085 0 5.05 1.836 5.05 4.77 0 1.275-.56 2.752-2.32 3.416zm17.321 6.426c3.165 0 5.665-2.576 5.665-5.79 0-3.212-2.5-5.811-5.665-5.811-3.188 0-5.662 2.599-5.662 5.812s2.474 5.789 5.662 5.789m0-14.815c5.001 0 8.93 4.03 8.93 9.026 0 4.949-3.929 9.002-8.93 9.002-5.001 0-8.903-4.053-8.903-9.002 0-4.996 3.902-9.026 8.903-9.026m22.374 8.389l6.124 9.383h-3.879l-4.184-6.758-4.184 6.758h-3.849l6.094-9.383-5.51-8.186h3.902l3.547 5.583 3.547-5.583h3.901zm11.073-8.186h13.19v2.984h-4.95v14.585h-3.292v-14.585h-4.948z" fill="#F16760" mask="url(#t)"/><path d="M85.001 392.989h100.881V274.097H85.002v118.892zm5.42-5.417h90.045V279.514H90.421v108.058z" fill="#F16760" mask="url(#t)"/><path d="M113.532 140.28c5.895 5.97 13.937 9.396 22.555 9.396 8.62 0 16.657-3.422 22.551-9.397h-45.106zm22.555 16.623c-13.516 0-25.872-6.848-33.055-18.32l-3.46-5.533h73.026l-3.463 5.533c-7.18 11.472-19.536 18.32-33.048 18.32z" fill="#334557" mask="url(#t)"/><path d="M239.955 444.281c-5.35 7.067-14.11 11.283-23.428 11.283-9.926 0-19.307-5.467-24.48-14.27a1.957 1.957 0 0 0-1.757-1.092H42.792c-6.622 0-12.22-5.593-12.22-12.212 0-6.397 5.824-12.222 12.22-12.222H190.29c.594 0 1.361-.269 1.727-1.022 5.216-8.863 14.594-14.333 24.51-14.333h2.816v40.406c0 1.016 1.116 2.131 2.135 2.131h19.486l-1.01 1.331zm-15.827-43.59l1.053.29c6.233 1.719 11.503 5.53 14.84 10.734l.817 1.278h-16.71v-12.301zm20.37 40.503a5.778 5.778 0 0 0-5.204-3.223h-14.97v-19.999h14.997a5.803 5.803 0 0 0 5.097-3.02 5.8 5.8 0 0 0-.206-5.922c-2.62-4.09-10.567-13.596-27.685-13.596-11.018 0-21.362 5.606-27.678 14.99l-.246.365H42.792c-9.162 0-17.202 8.036-17.202 17.2 0 9.48 7.718 17.192 17.202 17.192h145.81l.247.368c6.296 9.39 16.643 14.994 27.678 14.994 10.865 0 21.11-4.956 27.4-13.258a5.767 5.767 0 0 0 .57-6.09z" fill="#344557" mask="url(#t)"/><path d="M209.266 422.24c.578 0 1.647-.678 1.647-1.644 0-1.029-.614-1.643-1.647-1.643h-9.408c-1.042 0-1.643.597-1.643 1.643 0 1.026.614 1.643 1.643 1.643h9.408zm0 6.41c.578 0 1.647-.676 1.647-1.642 0-1.033-.614-1.647-1.647-1.647h-9.408c-1.029 0-1.643.614-1.643 1.647 0 1.042.6 1.643 1.643 1.643h9.408zm0 6.445c.565 0 1.647-.637 1.647-1.643 0-1.03-.614-1.643-1.647-1.643h-9.408c-1.042 0-1.643.597-1.643 1.643 0 1.042.6 1.643 1.643 1.643h9.408zM48.435 427.94c0 6.894-10.37 6.894-10.37 0 0-6.921 10.37-6.921 10.37 0" fill="#334557" mask="url(#t)"/></g><g fill-rule="nonzero"><path d="M433.376 291.244s-4.465 0-4.465 4.487v101.015s0 4.487 4.465 4.487h91.277s4.465 0 4.465-4.487V295.73s0-4.487-4.465-4.487h-91.277" fill="#000"/><path d="M520.189 303.584c0-1.853-1.504-3.365-3.348-3.365-.922 0-1.747.39-2.378.975l-75.701 76.09a3.372 3.372 0 0 0-.922 2.341c0 1.854 1.553 3.415 3.397 3.463h75.652c1.844 0 3.349-1.512 3.349-3.365v-76.139m-43.626 84.431c0 .292-.097.536-.242.683-.146.146-.388.195-.68.195h-1.455v-1.707h1.455c.292 0 .534.048.68.195.145.146.242.341.242.634m.34 1.365c.34-.146.582-.341.728-.634.146-.243.243-.585.243-.926 0-.244-.049-.44-.146-.634-.097-.196-.194-.39-.34-.537-.145-.146-.34-.293-.582-.341-.194-.098-.485-.147-.728-.147h-3.251v6.097h1.31v-2.39h1.31c.34 0 .583.049.728.244.146.146.243.39.291.683.049.244.049.488.097.78 0 .244.049.488.146.683h1.31l-.145-.292c-.049-.098-.049-.244-.049-.39 0-.147 0-.293-.048-.39v-.342c0-.147-.049-.293-.049-.44l-.145-.438c-.049-.147-.146-.244-.243-.342a.51.51 0 0 0-.437-.244m6.794-3.267v1.17h-3.203v1.268h2.96v1.073h-2.96v1.464h3.3v1.121h-4.61v-6.096h4.513m4.561 6.047c-.29.098-.582.196-.873.196a3.43 3.43 0 0 1-1.262-.244 2.186 2.186 0 0 1-.922-.683 3.513 3.513 0 0 1-.582-1.024c-.146-.39-.194-.78-.194-1.22 0-.439.048-.878.194-1.268.145-.39.34-.731.582-1.024.243-.293.582-.537.922-.683a3.421 3.421 0 0 1 1.262-.244c.291 0 .63.049.922.147.291.097.534.243.776.39.243.195.437.39.583.683.145.243.242.585.29.926h-1.261a1.73 1.73 0 0 0-.437-.78 1.498 1.498 0 0 0-.825-.244c-.29 0-.533.049-.776.195a1.173 1.173 0 0 0-.485.488 1.715 1.715 0 0 0-.291.683 3.81 3.81 0 0 0-.098.78c0 .244.049.488.098.732.048.244.145.439.29.634.146.195.292.341.486.488.194.097.485.195.776.195.437 0 .777-.098 1.02-.342.242-.244.388-.536.436-.975h-1.359v-.976h2.524v3.268h-.825l-.146-.683c-.29.244-.534.488-.825.586m3.106-6.048h1.31v6.097h-1.31zm3.639 4.633c.097.147.195.244.292.342.097.097.242.146.436.195.146.049.34.049.486.049.097 0 .242 0 .388-.05.145 0 .242-.048.388-.097.097-.049.194-.146.291-.244.097-.097.097-.244.097-.39a.555.555 0 0 0-.145-.39 1.056 1.056 0 0 0-.389-.244c-.145-.049-.34-.146-.582-.195-.194-.049-.437-.098-.63-.195-.243-.049-.437-.147-.68-.195a3.615 3.615 0 0 1-.582-.342c-.146-.146-.292-.292-.389-.487-.097-.196-.145-.44-.145-.732 0-.293.048-.585.194-.83.145-.243.291-.438.534-.585.194-.146.436-.243.728-.341.29-.098.533-.098.825-.098.34 0 .63.05.922.098.29.049.533.195.776.341.243.147.388.342.534.586.145.244.194.536.194.878h-1.31a.978.978 0 0 0-.097-.44 1.292 1.292 0 0 0-.243-.292 3.194 3.194 0 0 0-.388-.146c-.146-.05-.291-.05-.437-.05-.097 0-.194 0-.34.05-.097 0-.194.048-.29.097-.098.049-.146.147-.195.195a.708.708 0 0 0-.097.342c0 .097 0 .195.049.292.048.098.145.147.29.196.146.048.292.146.534.195.243.048.534.146.922.244.098.048.292.048.486.146.194.049.388.146.582.292.194.147.388.293.534.537.145.195.194.488.194.83 0 .292-.049.536-.146.78a1.487 1.487 0 0 1-.485.634c-.194.195-.485.292-.776.39-.291.097-.68.146-1.068.146-.34 0-.68-.049-.97-.146-.292-.098-.583-.195-.825-.39-.243-.195-.437-.39-.583-.683-.145-.293-.194-.585-.194-.976h1.31c-.097.342-.048.537 0 .683m4.028-3.463v-1.17h4.95v1.17h-1.796v4.926h-1.358v-4.926h-1.796m10.24-1.17v1.17h-3.204v1.268h2.96v1.073h-2.96v1.464h3.252v1.121h-4.562v-6.096h4.513m4.95 1.902c0 .292-.097.536-.243.683-.145.146-.388.195-.68.195h-1.455v-1.707h1.456c.291 0 .534.048.68.195.145.146.242.341.242.634m.34 1.365c.34-.146.582-.341.727-.634.146-.243.243-.585.243-.926 0-.244-.049-.44-.146-.634-.097-.196-.194-.39-.34-.537-.145-.146-.339-.293-.582-.341-.194-.098-.436-.147-.727-.147h-3.252v6.097h1.31v-2.39h1.31c.34 0 .583.049.729.244.145.146.242.39.29.683.05.244.05.488.098.78 0 .244.048.488.145.683h1.31l-.145-.292c-.049-.098-.049-.244-.049-.39 0-.147 0-.293-.048-.39v-.342c0-.147-.049-.293-.049-.44l-.145-.438c-.049-.147-.146-.244-.243-.342a.51.51 0 0 0-.437-.244" fill="#FFED00"/><path d="M460.647 374.26c.194.341.486.683.825.878.34.244.728.39 1.116.537.437.097.874.146 1.31.146.34 0 .68-.049 1.02-.098.34-.097.679-.195.97-.341.291-.146.534-.39.728-.683a1.81 1.81 0 0 0 .291-1.024c0-.683-.485-1.22-1.407-1.61-.922-.341-2.232-.683-3.882-1.073a23.705 23.705 0 0 1-1.99-.536 7.203 7.203 0 0 1-1.747-.83c-.485-.341-.922-.78-1.213-1.317a3.943 3.943 0 0 1-.485-1.902c0-1.122.194-2 .63-2.731.438-.683 1.02-1.268 1.7-1.659.679-.39 1.504-.683 2.377-.878a16.56 16.56 0 0 1 2.717-.243c.922 0 1.796.097 2.67.243.873.195 1.65.488 2.329.878.679.44 1.261.976 1.698 1.659.437.683.728 1.56.825 2.634h-4.464c-.049-.927-.389-1.512-1.02-1.854-.63-.341-1.358-.488-2.183-.488-.243 0-.534 0-.874.05-.29.048-.582.097-.825.194a1.578 1.578 0 0 0-.63.488c-.194.195-.243.488-.243.83 0 .438.146.78.437 1.023.29.244.728.488 1.213.635a28.72 28.72 0 0 0 1.698.439c.631.146 1.262.292 1.941.439.68.146 1.36.34 1.99.585.63.244 1.213.536 1.747.878a4.1 4.1 0 0 1 1.213 1.366c.291.536.485 1.219.485 2 0 1.121-.242 2.048-.68 2.828-.436.78-1.018 1.366-1.746 1.854a7.964 7.964 0 0 1-2.475.975c-.922.195-1.892.293-2.863.293-.97 0-1.941-.098-2.911-.293a8.252 8.252 0 0 1-2.524-.975 5.052 5.052 0 0 1-1.795-1.854c-.486-.78-.728-1.707-.777-2.877h4.465c0 .585.097 1.024.34 1.414m23.195-2.39c0 .244-.049.634-.097 1.073a3.514 3.514 0 0 1-.437 1.317c-.243.439-.63.78-1.116 1.122-.485.293-1.213.488-2.135.488-.388 0-.728-.05-1.068-.098a2.593 2.593 0 0 1-.922-.341 1.719 1.719 0 0 1-.63-.683 2.335 2.335 0 0 1-.243-1.073c0-.44.097-.83.242-1.073a1.82 1.82 0 0 1 .631-.732 2.47 2.47 0 0 1 .874-.439c.34-.098.68-.195 1.019-.244.388-.049.728-.097 1.116-.146.388-.049.728-.098 1.067-.146.34-.05.68-.147.971-.244.291-.098.534-.244.728-.39v1.609zm5.24 6.634c-.242-.342-.388-.878-.436-1.61a16.134 16.134 0 0 1-.146-2.195v-8.926c0-1.024-.242-1.853-.679-2.487-.437-.635-1.068-1.122-1.795-1.464a8.848 8.848 0 0 0-2.427-.731c-.873-.098-1.747-.195-2.62-.195-.97 0-1.893.097-2.815.292-.922.195-1.795.488-2.523.927a5.77 5.77 0 0 0-1.844 1.756c-.485.731-.776 1.658-.825 2.731h4.659c.097-.926.388-1.61.922-2 .533-.39 1.261-.585 2.183-.585.437 0 .825.049 1.165.098.34.048.68.146.97.341.292.146.486.39.68.683.145.293.242.683.242 1.22 0 .487-.145.877-.436 1.121-.292.244-.728.44-1.262.586a9.213 9.213 0 0 1-1.796.292c-.679.049-1.358.147-2.086.244a14.39 14.39 0 0 0-2.087.439c-.68.195-1.31.488-1.844.83a4.41 4.41 0 0 0-1.31 1.511c-.34.634-.534 1.415-.534 2.39 0 .878.146 1.659.437 2.293.291.634.728 1.17 1.213 1.61.534.438 1.165.731 1.844.926.68.195 1.456.293 2.28.293a9.618 9.618 0 0 0 3.107-.488 5.657 5.657 0 0 0 2.62-1.61c0 .293.048.586.097.83.049.292.146.536.194.829h4.853v.049zm.195-13.999v-3.122h2.814v-1.317c0-1.512.486-2.78 1.408-3.755.922-.976 2.377-1.464 4.27-1.464.437 0 .825 0 1.262.05.436.048.825.048 1.213.097v3.511a18.742 18.742 0 0 0-1.699-.097c-.63 0-1.116.146-1.358.439-.292.293-.389.78-.389 1.512v1.024h3.252v3.122h-3.252v13.999h-4.658v-14h-2.863m22.564 3.61h-7.618c0-.341.097-.683.194-1.122.097-.439.34-.829.63-1.17.292-.39.68-.683 1.165-.927.486-.244 1.117-.39 1.844-.39 1.165 0 1.99.293 2.572.927.631.585 1.02 1.463 1.213 2.682m4.368-.829c-.291-1.22-.825-2.292-1.504-3.268-.68-.927-1.553-1.707-2.67-2.244-1.067-.585-2.329-.829-3.784-.829a9.18 9.18 0 0 0-3.543.683 9.323 9.323 0 0 0-2.766 1.902 8.736 8.736 0 0 0-1.795 2.878c-.437 1.122-.631 2.293-.631 3.56 0 1.318.194 2.537.63 3.659a7.323 7.323 0 0 0 1.748 2.829 7.703 7.703 0 0 0 2.717 1.853c1.068.44 2.28.634 3.64.634 1.94 0 3.59-.438 4.95-1.316 1.358-.878 2.377-2.342 3.008-4.39h-4.125c-.145.536-.582 1.024-1.262 1.512-.679.488-1.504.731-2.426.731-1.31 0-2.33-.341-3.008-1.024-.68-.683-1.068-1.805-1.165-3.317H516.5c.097-1.365 0-2.633-.291-3.853m-34.113-10.292h-1.553l.777-2.243.776 2.243zm2.184 2.342l-2.281-6.097h-1.359l-2.28 6.097h1.358l.485-1.366h2.281l.437 1.366h1.359zm-8.104-.049a1.895 1.895 0 0 1-.874.195c-.485 0-.873-.098-1.261-.244a2.186 2.186 0 0 1-.922-.683 3.513 3.513 0 0 1-.583-1.024c-.145-.39-.194-.78-.194-1.268 0-.44.049-.878.194-1.268.146-.39.34-.732.583-1.025.242-.292.582-.536.922-.683a3.421 3.421 0 0 1 1.261-.243c.291 0 .631.048.922.146.291.097.534.244.777.439.242.195.436.39.582.683.146.244.243.585.291.927h-1.262a1.73 1.73 0 0 0-.436-.78 1.498 1.498 0 0 0-.825-.245c-.291 0-.534.049-.777.195-.194.098-.388.293-.533.488a1.715 1.715 0 0 0-.292.683 3.81 3.81 0 0 0-.097.78c0 .244.049.488.097.732.049.244.146.439.292.634.145.195.29.342.533.488.194.097.486.195.777.195.437 0 .776-.098 1.019-.341.242-.244.388-.537.437-.976h-1.36v-1.024h2.573v3.316h-.874l-.145-.682c-.291.243-.534.487-.825.585m9.414-1.463c.048.146.194.244.291.341.146.098.243.146.437.195.145.049.34.049.533.049.098 0 .243 0 .389-.049.145 0 .242-.049.388-.097a.498.498 0 0 0 .291-.244c.097-.098.097-.244.097-.39a.555.555 0 0 0-.145-.39 1.056 1.056 0 0 0-.389-.245c-.194-.048-.388-.146-.582-.195a15.716 15.716 0 0 0-.68-.146c-.242-.049-.436-.146-.679-.195-.194-.098-.388-.195-.582-.342-.146-.146-.291-.292-.388-.487-.097-.195-.146-.44-.146-.732 0-.293.049-.585.194-.83.146-.243.291-.438.534-.584.194-.147.437-.244.728-.342.291-.097.534-.097.825-.097.34 0 .63.048.922.097.291.049.534.195.776.342.243.146.389.341.534.634.146.244.194.536.194.926h-1.31a.978.978 0 0 0-.097-.439 1.306 1.306 0 0 0-.243-.292 3.286 3.286 0 0 0-.388-.147c-.145-.048-.291-.048-.437-.048-.097 0-.194 0-.34.048-.096 0-.193.05-.29.098-.097.049-.146.146-.195.195-.048.098-.097.195-.097.342 0 .097 0 .195.049.292.048.098.146.147.291.195.146.05.34.147.534.195.242.05.534.147.922.244.097 0 .291.05.485.147.194.048.388.146.582.292.195.147.389.293.534.537.146.244.194.488.194.829 0 .293-.048.537-.145.78-.097.244-.291.44-.486.634-.194.196-.485.293-.776.39-.291.098-.68.147-1.068.147-.34 0-.679-.049-.97-.146-.291-.098-.582-.195-.825-.39-.243-.196-.437-.39-.582-.683-.146-.293-.194-.586-.194-.976h1.31c-.146.244-.097.44 0 .537m29.116-2.927c.97 0 1.746.78 1.746 1.756a1.744 1.744 0 0 1-1.746 1.756c-.971 0-1.747-.78-1.747-1.756 0-1.024.776-1.756 1.747-1.756zm0 3.268c.824 0 1.455-.634 1.455-1.512 0-.83-.63-1.512-1.455-1.512-.825 0-1.456.634-1.456 1.512 0 .83.63 1.512 1.456 1.512zm-.68-2.536h.777c.485 0 .727.195.727.585 0 .39-.242.537-.533.585l.582.927h-.34l-.582-.878h-.34v.878h-.34v-2.097h.05zm.34.926h.34c.29 0 .533 0 .533-.341 0-.293-.242-.293-.436-.293h-.437v.634z" fill="#000"/></g></g></svg>