<svg width="373" height="333" viewBox="852 2315 373 333" xmlns="http://www.w3.org/2000/svg" xmlns:xlink="http://www.w3.org/1999/xlink"><defs><path id="a" d="M254.64 275.98V.094H.264V275.98h254.378z"/></defs><g fill="none" fill-rule="evenodd"><path d="M868.92 2449.964v-4.68h-8.84l6.48-7.4c1.64-1.84 2.8-4.16 2.8-6.68 0-4.68-3.84-7.88-8.44-7.88-4.64 0-8.08 2.96-8.84 7.72l4.56.84c.32-2.24 1.96-3.8 4.08-3.8 2.24 0 3.76 1.36 3.76 3.12 0 1.2-.68 2.36-1.6 3.44l-10.68 12.8v2.52h16.72zm10.696-9.96h5.8v-9.12l-5.8 9.12zm14.16 4.28h-3.48v5.68h-4.88v-5.68h-12.92l13.04-20.48h4.76v16.2h3.48v4.28zm21.336-21.88v11.56h-11.04v-11.56h-5.08v27.56h5.08v-11.4h11.04v11.4h5.16v-27.56h-5.16zm22.816 4.56h-5.68v8.64h5.52c2.68 0 3.88-2.24 3.88-4.28 0-2-1.16-4.36-3.72-4.36zm2.04 13l7.04 10h-6.16l-6.48-9.8h-2.12v9.8h-5.12v-27.56h11.04c6.08 0 8.8 4.44 8.8 8.92 0 3.96-2.12 7.84-7 8.64z" fill="#334557"/><path d="M1056.518 2533.692c-.57-2.414-2.322-3.613-4.803-3.027l-6.404 1.515 1.897 8.031 6.601-1.56c2.284-.54 3.245-2.692 2.709-4.96m-.47 9.998l-7.595 1.797 2.222 9.413 7.746-1.832c2.778-.658 3.757-3.388 3.21-5.703-.522-2.218-2.654-4.368-5.583-3.675m35.498-21.819c-6.206 1.468-9.832 7.63-8.367 13.842 1.467 6.21 7.457 10.048 13.66 8.58 6.158-1.455 9.848-7.583 8.381-13.795-1.464-6.209-7.516-10.084-13.674-8.628" fill="#FEFEFE"/><path d="M1014.833 2602.588a6.848 6.848 0 0 0-5.084 8.236c.87 3.678 4.555 5.958 8.23 5.089a6.848 6.848 0 0 0 5.083-8.237c-.869-3.678-4.554-5.958-8.229-5.088" fill="#334557"/><g transform="translate(969.476 2315.207)"><mask id="b" fill="#fff"><use xlink:href="#a"/></mask><path fill="#FFF" mask="url(#b)" transform="rotate(-13 127.962 142.833)" d="M30.462 25.833h195v234H47.308l-7.203-10.31-9.643-6.904z"/><path d="M8.5 52.247l185.676-43.91 52.23 221.247-170.578 40.34a37.158 37.158 0 0 1 4.162 6.056l174.652-41.303L199.262.094.263 47.154 49.68 256.487a37.65 37.65 0 0 1 7.337 1.284L8.5 52.247z" fill="#F06A63" mask="url(#b)"/></g><path d="M1058.42 2553.066l-7.746 1.832-2.221-9.413 7.594-1.797c2.93-.693 5.061 1.457 5.585 3.675.548 2.318-.434 5.045-3.212 5.703zm-13.108-20.887l6.403-1.515c2.481-.586 4.233.613 4.804 3.027.533 2.267-.426 4.42-2.709 4.96l-6.601 1.562-1.897-8.034zm14.768 7.279c3.123-2.092 3.541-5.21 2.96-7.673-1.339-5.668-6-8.312-12.005-6.89l-13.405 3.169 8.018 33.954 14.444-3.417c6.652-1.572 9.52-7.192 8.215-12.71-.699-2.958-3.713-6.408-8.227-6.433zm36.76 4.835c-6.206 1.468-12.194-2.37-13.66-8.582-1.468-6.21 2.16-12.375 8.367-13.84 6.155-1.458 12.209 2.418 13.674 8.627 1.467 6.211-2.224 12.338-8.381 13.795m-6.76-28.632c-9.729 2.3-15.486 11.882-13.205 21.541 2.258 9.56 11.7 15.601 21.432 13.3 9.728-2.302 15.525-11.947 13.267-21.507-2.279-9.656-11.764-15.635-21.494-13.334m53.99-12.769l-7.595 1.798-4.353 12.422-9.448-9.159-7.597 1.795 14.458 13.284-7.58 20.942 7.493-1.772 5.06-14.987 11.222 11.137 7.548-1.786-16.196-15.318zm37.47-2.774l-1.362-5.765-25.665 6.07 1.361 5.764 9.632-2.276 6.654 28.19 6.404-1.515-6.654-28.19z" fill="#F06A63"/><path d="M947.138 2525.326h-22.526c-2.155 0-3.909 1.767-3.909 3.937a3.916 3.916 0 0 0 3.909 3.913h22.526a3.916 3.916 0 0 0 3.91-3.913c-.02-2.165-1.771-3.937-3.91-3.937m3.91-55.667c-.019-2.154-1.773-3.915-3.91-3.915h-56.23a3.917 3.917 0 0 0-3.908 3.915c0 2.145 1.754 3.89 3.909 3.89h56.23c2.191 0 3.909-1.708 3.909-3.89m-3.91 25.863h-40.247a3.93 3.93 0 0 0-3.932 3.92c0 2.144 1.764 3.891 3.932 3.891h40.247c2.155 0 3.91-1.747 3.91-3.891-.02-2.157-1.771-3.92-3.91-3.92" fill="#334557"/><path d="M1023.484 2639.23c-16.588 3.925-33.113-6.293-37.033-22.895-3.918-16.605 6.289-33.142 22.878-37.066a30.758 30.758 0 0 1 19.027 1.601 30.748 30.748 0 0 1 9.287 6.074 30.632 30.632 0 0 1 4.803 5.903 30.87 30.87 0 0 1 3.914 9.318c3.92 16.604-6.289 33.142-22.876 37.066m119.944-59.808c-.44-1.857-2.323-3.008-4.169-2.532l-87.03 20.37-.1.023a37.466 37.466 0 0 0-2.663-6.096 37.158 37.158 0 0 0-4.162-6.055 37.609 37.609 0 0 0-5.88-5.65 37.908 37.908 0 0 0-5.152-3.346 37.767 37.767 0 0 0-7.778-3.158 37.44 37.44 0 0 0-7.338-1.284c-2.678-.2-5.405-.15-8.15.25a2.107 2.107 0 0 1-.024-.1c-18.808-79.966-19.558-83.308-40.006-169.92a3.414 3.414 0 0 0-2.352-2.52l-76.001-24.231a3.338 3.338 0 0 0-1.996-.078c-.124.037-.214.11-.33.156-2.958 1.179-2.857 5.535.35 6.435l1.265.403 72.826 23.18c19.832 84.008 20.977 89.016 39.588 168.149l.023.1c-18.174 6.132-29.048 25.357-24.555 44.39 4.77 20.194 25.084 32.757 45.262 27.984 19.016-4.496 31.326-22.832 28.668-41.843.026-.04.053-.083.079-.127l87.029-20.37a3.425 3.425 0 0 0 2.596-4.13" fill="#334557"/></g></svg>