<svg width="535" height="535" viewBox="0 0 535 535" xmlns="http://www.w3.org/2000/svg" xmlns:xlink="http://www.w3.org/1999/xlink"><title>img-zero-saleman</title><defs><path id="a" d="M.525.378h166.611v187.09H.526V.378z"/></defs><g fill="none" fill-rule="evenodd"><g opacity=".4" fill="#00A4B6"><ellipse opacity=".1" cx="267.35" cy="267.459" rx="266.811" ry="266.959"/><ellipse opacity=".1" cx="267.35" cy="267.459" rx="196.35" ry="196.459"/><ellipse opacity=".1" cx="267.35" cy="267.459" rx="136.136" ry="136.211"/><ellipse opacity=".1" cx="267.35" cy="267.459" rx="83.776" ry="83.822"/><ellipse opacity=".1" cx="267.35" cy="267.459" rx="49.742" ry="49.77"/></g><path d="M177.336 236.646l.71-2.386c3.073-11.1 2.494-22.71-1.485-33.455-10.51-28.395-42.231-42.956-70.646-32.441-28.42 10.514-42.886 42.163-32.376 70.56 10.512 28.392 42.232 42.953 70.645 32.44 8.302-3.07 15.825-8.248 21.77-14.828l1.026-1.173 1.575-.05c10.552-.585 20.398-2.369 28.23-5.265l.585-.216c-4.705-2.645-11.22-6.608-17.895-11.714l-2.139-1.472zm37.66 40.516l20.204 32.72 18.117-13.565c.197-.24.419-.454.671-.64l4.487-3.34c-13.71-5.03-24.705-13.016-33.989-24.66l-9.49 9.485zm23.438 125.46a3.738 3.738 0 0 1-3.69-4.39l16.107-90.723-14.444 10.814a3.734 3.734 0 0 1-2.942.68 3.733 3.733 0 0 1-2.488-1.71L207.07 278.57a3.732 3.732 0 0 1 .54-4.605l14.613-14.608c.776-.77 1.864-1.179 2.942-1.082a3.735 3.735 0 0 1 2.738 1.534c10.084 13.9 22.41 22.606 38.722 27.328a3.613 3.613 0 0 1 2.318.74l10.489 7.8a3.728 3.728 0 0 1 1.455 2.375l16.754 98.96a3.736 3.736 0 0 1-3.064 4.31 3.729 3.729 0 0 1-4.315-3.064l-16.505-97.478-6.982-5.19-7.152 5.355-17.511 98.59a3.74 3.74 0 0 1-3.678 3.087z" fill="#334557"/><g transform="translate(183.9 67.135)"><mask id="b" fill="#fff"><use xlink:href="#a"/></mask><path d="M83.832 14.316c-39.514 0-71.663 35.71-71.663 79.608 0 43.895 32.149 79.605 71.663 79.605 39.514 0 71.66-35.71 71.66-79.605 0-43.898-32.146-79.608-71.66-79.608m0 166.132c-43.416 0-78.739-38.815-78.739-86.524 0-47.712 35.323-86.526 78.739-86.526 43.415 0 78.736 38.814 78.736 86.526 0 47.71-35.32 86.524-78.736 86.524" fill="#334557" mask="url(#b)"/><path d="M60.957 134.032c5.851 5.92 13.835 9.315 22.389 9.315 8.557 0 16.534-3.392 22.385-9.315H60.957zm22.389 16.479c-13.416 0-25.682-6.789-32.812-18.16l-3.435-5.486h72.49l-3.438 5.485c-7.127 11.372-19.392 18.16-32.805 18.16z" fill="#334556" mask="url(#b)"/></g><path d="M142.476 235.08l3.823 9.27c-1.363.825-2.997 1.364-4.632 1.905-1.632.538-3.553.823-5.188.823-2.19 0-4.918-.539-8.455-1.633-3.556-1.095-6.286-1.633-7.918-1.633-3 0-5.727 1.094-9.013 3.266l-3.821-9.27c2.73-2.19 4.632-4.363 5.727-6.547 1.096-2.459 1.635-4.633 1.635-6.817 0-.825 0-1.364-.27-2.19H107v-8.449h5.73c-1.096-2.994-1.363-5.988-1.363-9.272 0-2.728.821-5.453 2.186-7.911 1.365-2.454 3.554-4.358 6-5.722 2.455-1.364 5.457-1.9 8.456-1.9 4.632 0 8.455 1.361 11.185 3.82 2.728 2.453 4.362 6.275 5.188 10.905l-9.55 1.633c-.544-2.727-1.365-4.632-2.46-5.994-1.096-1.092-2.73-1.902-4.363-1.902-1.906 0-3.556.82-4.636 2.184-1.365 1.364-1.902 3-1.902 5.184 0 1.094.267 2.458.537 4.36.274 1.905.826 3.266 1.365 4.914h11.19v7.882h-9.553v1.633c0 1.905-.272 3.82-1.096 5.722a39.13 39.13 0 0 1-4.362 6.816c1.365-.823 3-1.092 4.916-1.092.826 0 1.635 0 2.191.27.27 0 1.365.269 2.997.822 3 .826 4.922 1.092 5.997 1.092 1.365 0 3.826-.805 6.823-2.169" stroke="#334557" fill="#FEFEFE"/><path d="M276.22 292.377l23.383 17.505 20.201-32.722-9.49-9.482c-9.308 11.671-20.333 19.67-34.093 24.699m24.418 26.692a3.722 3.722 0 0 1-2.243-.748l-32.467-24.304a3.73 3.73 0 0 1-1.432-3.685 3.728 3.728 0 0 1 2.678-2.91c16.81-4.654 29.434-13.43 39.723-27.615a3.735 3.735 0 0 1 2.737-1.533 3.723 3.723 0 0 1 2.94 1.085l14.616 14.605a3.739 3.739 0 0 1 .539 4.607l-23.904 38.72a3.728 3.728 0 0 1-3.187 1.778M407.04 397.91c-.002-.08-.012-.158-.015-.238-.002-.002-.002-.007-.002-.01-1.802-45.928-25.79-86.199-61.469-110.343l-.005.01a3.678 3.678 0 0 0-1.59-.634 3.743 3.743 0 0 0-4.23 3.18 3.727 3.727 0 0 0 1.967 3.819c33.592 22.873 56.121 60.903 57.826 104.215h.017c.005 1.835 1.34 3.44 3.212 3.705a3.752 3.752 0 0 0 4.242-3.186c.025-.177.022-.347.022-.519h.025zM193.509 286.062a3.72 3.72 0 0 0-2.004.59l-.007-.012c-36.262 24.093-60.703 64.765-62.498 111.27h.015a3.743 3.743 0 0 0 3.214 3.705 3.753 3.753 0 0 0 4.242-3.186c.025-.175.02-.347.02-.52h.02c1.735-43.728 24.68-82.044 58.786-104.84 1.158-.636 1.954-1.853 1.954-3.266a3.743 3.743 0 0 0-3.743-3.74" fill="#334557"/><path d="M85.54 483.46L485.963 83.037" stroke="#FB6058" stroke-width="15" stroke-linecap="round" stroke-linejoin="round"/><path d="M328.652 120.456a2.09 2.09 0 0 0-.172.197c-1.85 2.272-7.131 7.47-16.175 6.606-.047-.007-.086.01-.13.012a8.717 8.717 0 0 1-1.078-.422c-2.165-1.01-4.801-3.146-5.06-7.602-.34-5.803 4.41-8.797 5.584-9.444 5.925.596 8.84-2.358 9.033-2.568l21.107-27.048c-4.469 16.559-10.79 37.886-13.109 40.27zm-118.692 0c.027.024.088.09.173.197 1.85 2.272 7.131 7.47 16.175 6.606.047-.007.085.01.13.012a8.717 8.717 0 0 0 1.077-.422c2.165-1.01 4.802-3.146 5.06-7.602.34-5.803-4.41-8.797-5.583-9.444-5.925.596-8.84-2.358-9.033-2.568l-21.107-27.048c4.469 16.559 10.79 37.886 13.109 40.27z" stroke="#334557" stroke-width="6" fill="#FFF"/></g></svg>