<?xml version="1.0" encoding="utf-8"?>
<!-- Generator: Adobe Illustrator 22.0.1, SVG Export Plug-In . SVG Version: 6.00 Build 0)  -->
<svg version="1.1" id="Layer_1" xmlns="http://www.w3.org/2000/svg" xmlns:xlink="http://www.w3.org/1999/xlink" x="0px" y="0px"
	 viewBox="0 0 285.7 121" style="enable-background:new 0 0 285.7 121;" xml:space="preserve">
<style type="text/css">
	.st0{fill:#5C6759;}
	.st1{fill:#96323D;}
	.st2{fill:#738CB3;}
</style>
<g>
	<path class="st0" d="M18.2,95.3c0,0-4.9-7.4-10.8-1.5c-1.5,1.5-1.5,3.9-1.5,3.9s-7.7-0.8-5.4,8.5s6.2,13.1,6.2,13.1h11.6L18.2,95.3
		z"/>
	<polygon class="st0" points="93.9,80.5 51.4,38 8.9,80.5 5.9,77.6 51.4,32.1 96.9,77.6 	"/>
	<g>
		<path class="st0" d="M81,85.2l-3.5,5.1c-1.2-1.6-4.2-4.2-7.7-4.2c-2.5,0-4.7,0.8-4.7,3.6c0,6.1,16.1,3.9,16.1,13.8
			c0,4.8-2.7,10.4-11.4,10.4c-5.1,0-8.7-2.3-11.6-4.8l3.8-4.9c2.2,2.5,5.9,6.2,10.3,6.2c3.8,0,5.1-1.6,5.1-4.3
			c0-7.1-16.6-4.6-16.6-14c0-5.8,5.1-8.8,10.3-8.8c2.8,0,5.4,1,7.1,2l1.2-1.3L81,85.2z"/>
		<path class="st0" d="M84.8,113.3v-2h2.3V96l-2.3,0.7v-2l8.1-2.6c-0.1,1-0.1,2-0.1,3v16H95v2H84.8z M92.8,87c0,1.8-1.1,3.2-3.2,3.2
			c-2.1,0-3.2-1.4-3.2-3.2c0-1.8,1.5-3.2,3.2-3.2C91.3,83.7,92.8,84.9,92.8,87z"/>
		<path class="st0" d="M109.2,95.6h-3.6v12.8c0,1,0.6,1.9,1.9,1.9c0.9,0,1.7-0.5,2.4-0.9l1.2,1.5c-1.8,1.8-3.6,3-6.2,3
			c-3,0-4.9-1.9-4.9-5.1V95.6h-2.8v-2.1c3.4-0.6,5.3-2.7,6.7-5.7l2.1,0.4c-0.2,0.9-0.3,3.7-0.3,4.6h4.3L109.2,95.6z"/>
		<path class="st1" d="M118,93.9c1.4-0.8,3.4-1.7,5.9-1.7c4.2,0,6.3,2.7,6.3,6.3v12.8h2.4v2h-7l-0.5-2.3c-1.4,1.6-3.1,2.9-6.2,2.9
			c-4.3,0-6.9-2.6-6.9-6.6c0-5.8,4.7-7.4,11.5-7.4h1c0-3.2-1-4.7-3.4-4.7c-2,0-3.7,1.7-4.6,3.4l-2.1-0.5l1.6-5.7l2.1,0.5L118,93.9z
			 M121.1,110.1c2.3,0,3.5-1.2,3.5-2.6v-5.3c-1,0-1.1-0.1-2.3-0.1c-2.6,0-4.6,1.1-4.6,3.9C117.7,108.5,119,110.1,121.1,110.1z"/>
		<path class="st2" d="M137.1,87.9l-2.3,0.8v-2l9.9-3.3v2l-2,0.7v9.1c1.6-1.2,3.9-2.8,6.7-2.8c3.5,0,6,2.1,6,5.9v13.2h2.3v2h-10.2
			v-2h2.2V98.5c0-1.9-1.2-2.5-2.7-2.5c-1.7,0-3.7,1.5-4.4,2.1v13.2h2.3v2h-10.2v-2h2.3V87.9z"/>
		<path class="st2" d="M183.1,103c0,6-4.4,10.8-11.4,10.8c-7.1,0-11.4-4.8-11.4-10.8c0-6,4.4-10.8,11.4-10.8
			C178.7,92.2,183.1,97.1,183.1,103z M177.4,105.4c0-5.1-2.2-10.7-6.6-10.7c-3.3,0-4.9,2.9-4.9,5.9c0,6.4,2.7,10.9,6.5,10.9
			C176.1,111.4,177.4,109,177.4,105.4z"/>
		<path class="st2" d="M200.5,110.9c-2,1.8-4.1,3-7.1,3c-3.5,0-5.7-2.4-5.7-6.4V96.1l-2.4,0.8v-2l8.2-2.7c-0.1,1.2-0.1,2.3-0.1,3.7
			v10.8c0,2.2,1,3.3,3,3.3c1.5,0,2.9-0.9,4.1-2.2V96.1l-2.1,0.6v-2l7.8-2.5c-0.1,1.1-0.1,2.1-0.1,3.8v15.2h2.2v2h-7.5L200.5,110.9z"
			/>
		<path class="st2" d="M224.8,98.4c-2.1-2-4.2-3.8-6.5-3.8c-1.5,0-2.2,0.9-2.2,2.1c0,4.4,11.7,2.4,11.7,9.6c0,4.7-3.3,7.6-9.2,7.6
			c-3.5,0-6.3-1.1-8.6-3.2l3-4.2c1.8,1.9,4.7,4.9,7.7,4.9c1.8,0,3-0.9,3-2.7c0-4.3-11.4-2.2-11.4-9.8c0-4,3-6.6,7.6-6.6
			c2.7,0,5.4,0.7,7.6,2.3L224.8,98.4z"/>
		<path class="st2" d="M251.3,108.7c-1.7,2.1-4.5,5.1-10.1,5.1c-6,0-10.4-4.4-10.4-10.4c0-5.8,3.8-11.2,10.8-11.2
			c5.4,0,8.4,3.3,9.8,8c-1.3,0.3-2.7,0.8-4,1.3l-10.2,3.7c0.8,2.1,2.6,4.8,6.4,4.8c2.4,0,4.2-1,6.1-2.7L251.3,108.7z M245.7,99.5
			c-0.7-2.3-2.1-4.8-5.1-4.8c-3.1,0-4.6,2.5-4.6,5.5c0,0.9,0.1,1.9,0.3,2.7L245.7,99.5z"/>
	</g>
	<g>
		<path class="st2" d="M254.5,113.3c0,0.6-0.5,1-1,1c-0.5,0-1-0.4-1-1c0-0.6,0.5-1,1-1C254,112.3,254.5,112.7,254.5,113.3z"/>
		<path class="st2" d="M262,107.8l-0.5-0.5c0.2-0.2,0.3-0.5,0.3-0.7c0-0.7-0.5-1-1.4-1c-1.8,0-2.8,1.7-2.8,3.6c0,2.2,1,3.9,3.1,3.9
			c1.4,0,2.3-0.7,2.8-1.3l0.5,0.5c-0.7,0.9-1.9,1.9-3.8,1.9c-2.7,0-4.5-2-4.5-4.8c0-2.5,2-4.6,4.8-4.6c1.3,0,2.3,0.5,2.8,1l0.4-0.4
			l0.5,0.5L262,107.8z"/>
		<path class="st2" d="M269.6,104.9c2.8,0,4.8,1.9,4.8,4.8c0,2.8-2.3,4.6-5.1,4.6c-3.2,0-4.8-2.7-4.8-4.9
			C264.6,106.4,266.9,104.9,269.6,104.9z M269.9,113.6c1.8,0,2.6-1.3,2.6-3.4c0-2.7-1.1-4.6-3.2-4.6c-1.8,0-2.7,1.4-2.7,3.3
			C266.6,111.8,268.2,113.6,269.9,113.6z"/>
		<path class="st2" d="M282.6,108L282.6,108l-1.8,4.6c-0.2,0.5-0.3,1-0.4,1.5h-1.2l-1.6-6.1h0l-0.8,5.4h0.9v0.7H275v-0.7h0.8
			l1.1-7.5h-0.8v-0.7h2.5l1.6,6.1h0l2.3-6.1h2.4v0.7h-0.9l0.7,7.5h0.8v0.7h-3.6v-0.7h1L282.6,108z"/>
	</g>
	<rect x="33.1" y="73" class="st1" width="7.9" height="12.8"/>
	<rect x="42.9" y="73" class="st1" width="7.9" height="12.8"/>
	<rect x="33.1" y="87.7" class="st1" width="7.9" height="12.8"/>
	<rect x="42.9" y="87.7" class="st1" width="7.9" height="12.8"/>
	<rect x="6.6" y="118.9" class="st0" width="279.1" height="2.1"/>
	<rect x="17.2" y="89.1" class="st0" width="3.4" height="31.7"/>
	<polygon class="st0" points="15.1,72.1 19.7,77.5 56,41.2 51.4,35 	"/>
	<polygon class="st0" points="91.3,77 85.5,71.2 85.5,55.3 91.2,55.3 	"/>
	<path class="st1" d="M77.5,30.8l-2.4-2.9c-0.2-0.3-0.5-0.4-0.8-0.5c0,0,0.1,0,0.2-0.1c0.6-0.4,0.9-1.1,0.7-1.8L70,10.9
		c-0.2-0.6-0.7-1-1.3-1l-1.8-0.2c-0.1,0-0.3,0-0.4,0c0.5-0.5,0.9-1,1.3-1.6c1.8-2.9,1.4-6.3-0.8-7.6c-2.2-1.3-5.4-0.1-7.1,2.7
		c-1.6,2.6-1.5,5.7,0.3,7.3c-0.5,0.1-0.9,0.4-1.1,0.9l-0.2,0.5c-0.9,1-2.5,3.1-4.6,6.6c-2.6,4.4-4.1,12.6-4.5,15.2L49,35.4
		c-0.2,0.5-0.1,1.2,0.2,1.6c0.4,0.4,1,0.6,1.5,0.5l3.2-0.8l15-0.4l-5.1,12.9c-0.2,0.5-0.1,1,0.2,1.4c0.3,0.4,0.8,0.7,1.3,0.7h4.1
		l0.8,1.1c0.3,0.4,0.8,0.7,1.3,0.7c0.3,0,0.6-0.1,0.9-0.3c0.7-0.5,0.9-1.4,0.4-2.1l-2.9-4.4l6.8-11c0.3-0.5,0.3-1.1,0-1.6
		c-0.1-0.2-0.3-0.4-0.5-0.5c0.1,0,0.2,0,0.3,0c0.3,0,0.7-0.1,1-0.3C77.9,32.4,78,31.4,77.5,30.8z M62.2,22.3l1.5,5.1
		c0.2,0.5,0.6,0.9,1.2,1.1l5.5,1.2l-12.4,3L62.2,22.3z M72.4,26.9l-6-1.3l-2.2-7.4L72.4,26.9z M65.3,10.6c-0.1,0.1-0.1,0.3-0.1,0.5
		c-0.1,0.8,0.5,1.6,1.4,1.7l0.9,0.1l2.4,6.7L62,11.4C63.1,11.5,64.2,11.3,65.3,10.6z M68.6,33.2l1.7-0.4l-0.1,0.4L68.6,33.2z
		 M72.2,36.4l0.1-0.2l0,0L72.2,36.4z M75.1,33l-1.6,0l0.6-1.5l0.9,1.1c0.1,0.1,0.3,0.3,0.4,0.3C75.4,33,75.3,33,75.1,33z"/>
</g>
</svg>
