<svg xmlns="http://www.w3.org/2000/svg" xmlns:xlink="http://www.w3.org/1999/xlink" width="450" height="405" viewBox="0 0 450 385"><defs><path id="a" d="M.2 0h459.76v398.16H.2z"/><linearGradient id="c" x1="0%" x2="49.669%" y1="50%" y2="50%"><stop offset="0%" stop-color="#F5AD8C"/><stop offset="49.669%" stop-color="#FB6058"/><stop offset="100%" stop-color="#F88672"/></linearGradient><linearGradient id="d" x1="0%" y1="50%" y2="50%"><stop offset="0%" stop-color="#F5AD8C"/><stop offset="50.265%" stop-color="#F88672"/><stop offset="100%" stop-color="#FB6058"/></linearGradient><path id="e" d="M0 51.527V.007h449.886v103.04H0v-51.52z"/><path id="g" d="M226.786 217.097h3.035-3.035v59.652H54.484V50.26h172.302v166.838z"/><path id="h" d="M20.365 19.477c.723-.463 8.307-5.31 9.05-4.927.781.403 1.361.89 1.02 2.356-.341 1.466-3.357 3.508-4.96 5.376-1.604 1.867-2.099 6.782-4.695 8.928-1.73 1.431-4 2.834-6.81 4.21l.135 14.228-6.072-.058-.136-14.229c-1.396-.94-2.515-1.75-3.358-2.432C3.324 31.946.424 29.013.145 22.804A2.095 2.095 0 0 1 0 22.036V9.753a2.1 2.1 0 1 1 4.2 0v5.539a10.7 10.7 0 0 1 1.2-.634V5.632a2.1 2.1 0 0 1 4.2 0v7.952c.388-.038.788-.063 1.2-.074V2.69a2.1 2.1 0 1 1 4.2 0v11.368a8.93 8.93 0 0 1 1.2.499V2.1a2.1 2.1 0 1 1 4.2 0v16.992c0 .132-.012.26-.035.385z"/><path id="j" d="M20.365 19.477c.723-.463 8.307-5.31 9.05-4.927.781.403 1.361.89 1.02 2.356-.341 1.466-3.357 3.508-4.96 5.376-1.604 1.867-2.099 6.782-4.695 8.928-1.73 1.431-4 2.834-6.81 4.21l.135 14.228-6.072-.058-.136-14.229c-1.396-.94-2.515-1.75-3.358-2.432C3.324 31.946.424 29.013.145 22.804A2.095 2.095 0 0 1 0 22.036V9.753a2.1 2.1 0 1 1 4.2 0v5.539a10.7 10.7 0 0 1 1.2-.634V5.632a2.1 2.1 0 0 1 4.2 0v7.952c.388-.038.788-.063 1.2-.074V2.69a2.1 2.1 0 1 1 4.2 0v11.368a8.93 8.93 0 0 1 1.2.499V2.1a2.1 2.1 0 1 1 4.2 0v16.992c0 .132-.012.26-.035.385z"/><path id="m" d="M55.84 225.785h169.59V4.332H55.84z"/><filter id="l" width="116%" height="113.2%" x="-8%" y="-3.4%" filterUnits="objectBoundingBox"><feMorphology in="SourceAlpha" operator="dilate" radius=".6" result="shadowSpreadOuter1"/><feOffset dy="8" in="shadowSpreadOuter1" result="shadowOffsetOuter1"/><feGaussianBlur in="shadowOffsetOuter1" result="shadowBlurOuter1" stdDeviation="3"/><feComposite in="shadowBlurOuter1" in2="SourceAlpha" operator="out" result="shadowBlurOuter1"/><feColorMatrix in="shadowBlurOuter1" values="0 0 0 0 0 0 0 0 0 0 0 0 0 0 0 0 0 0 0.0706238678 0"/></filter><path id="n" d="M22.5 0C10.074 0 0 10.074 0 22.5S10.074 45 22.5 45 45 34.926 45 22.5l-4.5.5c-1.166.183-2 .183-2.5 0-.643-.235-.5 0-1.5-1s-.943-4.243-2-4c-1.626.375-2.969 2.016-4 1.5-.46-.23-1.358-.799-1.5-1.5-.139-.685.195-2.185 1-4.5-3.49-.76-5.323-1.76-5.5-3-.266-1.86 2.717-2.635 2.538-3.8-.18-1.165-1.226-2.152-2.538-2.2-.605-.022-1.719-.643-2-.867-.517-.414-.517-1.625 0-3.633z"/></defs><g fill="none" fill-rule="evenodd"><g transform="translate(-5 -2)"><mask id="b" fill="#fff"><use xlink:href="#a"/></mask><g mask="url(#b)"><g transform="translate(5.48 77.28)"><ellipse cx="224.776" cy="224.737" fill="url(#c)" opacity=".05" rx="224.736" ry="224.701"/><ellipse cx="224.776" cy="224.737" fill="url(#d)" opacity=".1" rx="168.915" ry="168.889"/><ellipse cx="224.776" cy="224.737" fill="url(#d)" opacity=".15" rx="115.997" ry="115.979"/><ellipse cx="224.776" cy="224.737" fill="url(#d)" opacity=".2" rx="78.411" ry="78.399"/><ellipse cx="224.776" cy="224.737" fill="url(#d)" opacity=".25" rx="45.706" ry="45.699"/><ellipse cx="224.776" cy="224.737" fill="url(#d)" opacity=".3" rx="19.331" ry="19.328"/></g></g><g mask="url(#b)"><g transform="translate(.242 295.265)"><mask id="f" fill="#fff"><use xlink:href="#e"/></mask><path fill="#FEFEFE" d="M440.609 107.284c-1.01 0-1.83-.819-1.844-1.832l.014-.931c.005-.166.01-.336.01-.506 0-21.723-17.585-39.395-39.203-39.395a39.11 39.11 0 0 0-18.506 4.66l-6.398 3.45 3.64-5.586c2.615-4.01 4.534-8.479 5.29-13.213 3.583-22.39-15.273-41.563-37.498-38.35-6.831.986-13.112 4.336-18.176 9.047l-1.672 1.556a.102.102 0 0 1-.17-.054l-.457-2.199c-2.146-10.29-10.528-18.45-20.952-19.358-12.067-1.051-22.774 7.273-24.973 19.008 0 0-.092.516-.092.533 0 .916-.667 1.641-1.53 1.803-10.887-11.978-28.43-19.759-48.227-19.759-19.675 0-37.13 7.683-48.03 19.54-.547-.326-.93-.9-.93-1.584 0-.017-.093-.533-.093-.533-2.197-11.735-12.906-20.06-24.972-19.008-10.425.907-18.805 9.067-20.95 19.358l-.46 2.2a.102.102 0 0 1-.17.053l-1.672-1.556c-5.064-4.711-11.343-8.06-18.174-9.048-22.225-3.212-41.083 15.96-37.5 38.351.756 4.734 2.675 9.203 5.29 13.213l3.643 5.586-6.4-3.45a39.12 39.12 0 0 0-18.504-4.66c-21.62 0-39.207 17.672-39.207 39.395 0 .17.007.34.013.506l.014.93a1.853 1.853 0 0 1-1.846 1.833c-.445 0-.837-.178-1.157-.444v.684h423.006v-.684a1.793 1.793 0 0 1-1.157.444" mask="url(#f)"/></g></g><g transform="translate(90 14)"><use fill="#FFF" xlink:href="#g"/><path stroke="#979797" stroke-width=".6" d="M226.486 276.45v.3l.3-.3h-.3zm-171.702 0h-.3l.3.3v-.3zm0-225.89v-.3l-.3.3h.3zm171.702 0h.3l-.3-.3v.3zm0 166.237v.6h3.335v-.6h-3.335z"/></g><g transform="translate(90.214 62.025)"><g transform="rotate(-68 124.723 78.812)"><mask id="i" fill="#fff"><use xlink:href="#h"/></mask><use fill="#344557" stroke="#344557" stroke-width="4.2" xlink:href="#h"/><g fill="#F2AD8C" mask="url(#i)"><path d="M-13.8-1.766h59.4v58.393h-59.4z"/></g></g><g transform="scale(-1 1) rotate(-68 -15.344 286.47)"><mask id="k" fill="#fff"><use xlink:href="#j"/></mask><use fill="#344557" stroke="#344557" stroke-width="4.2" xlink:href="#j"/><g fill="#F2AD8C" mask="url(#k)"><path d="M-13.8-1.766h59.4v58.393h-59.4z"/></g></g><use fill="#000" filter="url(#l)" xlink:href="#m"/><use fill="#FFF" stroke="#FB6058" stroke-width="1.2" xlink:href="#m"/><ellipse cx="140.907" cy="272.027" fill="#FAEAE8" rx="38.528" ry="20.726"/><path fill="#344557" d="M130.091 229.183v29.356s-9.657 2.312-9.675 8.79c-.019 6.477 16.63 4.298 16.63 2.365v-40.51h-6.955z"/><path fill="#4D3C3B" d="M130.085 229.712h6.962v6.479h-6.962z"/><path fill="#344557" d="M151.722 229.183v29.356s9.658 2.312 9.676 8.79c.019 6.477-16.63 4.298-16.63 2.365v-40.51h6.954z"/><path fill="#4D3C3B" d="M151.729 229.712h-6.962v6.479h6.962z"/><path fill="#FB6058" d="M55.84 225.785h169.59V4.332H55.84v221.453zm-4.347 4.332h178.28V0H51.492v230.117z"/><path fill="#344557" stroke="#334557" stroke-width="1.2" d="M172.244 154.208c.571-.311.78-1.026.467-1.595-.214-.39-.871-.563-1.035-.61-.163-.048-.385.046-.565.144-.099.053-10.277 5.444-30.896 5.444-20.62 0-30.797-5.391-30.898-5.445a1.18 1.18 0 0 0-1.598.47 1.173 1.173 0 0 0 .466 1.592c.429.235 10.736 5.734 32.03 5.734s31.6-5.5 32.029-5.734z"/></g><path fill="#344557" d="M224.696 185.843c0 4.77-2.922 8.636-6.528 8.636-3.606 0-6.527-3.865-6.527-8.636 0-4.77 2.921-8.636 6.527-8.636 3.606 0 6.528 3.866 6.528 8.636"/><path fill="#FFF" d="M224.696 173.753c0 4.77-2.922 8.636-6.528 8.636-3.606 0-6.527-3.866-6.527-8.636s2.921-8.636 6.527-8.636c3.606 0 6.528 3.865 6.528 8.636"/><path fill="#344557" d="M250.67 185.843c0 4.77-2.922 8.636-6.528 8.636-3.606 0-6.527-3.865-6.527-8.636 0-4.77 2.921-8.636 6.527-8.636 3.606 0 6.527 3.866 6.527 8.636"/><path fill="#FFF" d="M250.67 173.753c0 4.77-2.922 8.636-6.528 8.636-3.606 0-6.527-3.866-6.527-8.636s2.921-8.636 6.527-8.636c3.606 0 6.527 3.865 6.527 8.636"/><path d="M274.374 14.626c-.929-.359-1.986.07-2.362.96l-7.816 18.504c-.375.889.073 1.9 1.003 2.26.929.359 1.986-.07 2.361-.96l7.817-18.504c.375-.89-.074-1.9-1.003-2.26zm-94.709 0c.93-.359 1.987.07 2.362.96l7.817 18.504c.375.889-.074 1.9-1.003 2.26-.93.359-1.987-.07-2.362-.96l-7.816-18.504c-.376-.89.073-1.9 1.002-2.26zm163.908 84.87a1.873 1.873 0 0 0 2.566 0l14.754-14.113a1.683 1.683 0 0 0 0-2.454 1.873 1.873 0 0 0-2.566 0L343.573 97.04a1.683 1.683 0 0 0 0 2.455zm-227.245 0a1.873 1.873 0 0 1-2.566 0L99.007 85.383a1.683 1.683 0 0 1 0-2.454 1.873 1.873 0 0 1 2.566 0l14.755 14.112a1.683 1.683 0 0 1 0 2.455z" fill="#FBD9D5"/></g><path d="M360.485 234.06l.023.004c.745.19 1.559.879 1.533 1.517-.012.282-.192.615-.676.7-.526.095-1.108.175-1.573.015a1.25 1.25 0 0 1-.345-.18c-.182-.134-.405-.397-.443-.862-.042-.486.147-.769.312-.921.423-.402 1.095-.288 1.17-.272zm-19.49-2.314c.25-.285.607-.372.94-.228l.512.224c.749.148 1.177.377 1.384.738.144.255.162.546.05.87-.21.613-1.129.762-1.403.792-.39.041-.73.01-1.005-.084-.265-.096-.466-.242-.59-.443-.335-.542-.281-1.414.112-1.869zm9.192-2.5c.406.03.972.12 1.2.556.218.413-.033.84-.126 1-.283.477-1.12.556-1.285.566-.194.013-.49.007-.756-.085a.955.955 0 0 1-.478-.33c-.302-.39-.367-.832-.184-1.174.346-.632 1.307-.563 1.629-.533zm4.473 3.087c.067.038.148.07.228.097.192.07.484.176.553.495.077.317-.125.585-.354.826a4.095 4.095 0 0 1-.967.728c-.493.263-.92.35-1.262.255-.017-.006-.04-.009-.06-.016-.315-.108-.532-.368-.613-.739-.172-.768.009-1.458.464-1.801.333-.252.953-.429 2.011.155zm22.175-2.399c.89.249 1.838 1.047 1.84 1.851-.001.224-.088.78-.893.998l-.07.023c-.706.195-1.246.346-1.686.195a1.013 1.013 0 0 1-.239-.12c-.403-.272-.495-.79-.531-1.154-.074-.735.079-1.262.447-1.574.465-.387 1.036-.243 1.132-.22zm-7.585-1.24l.045.035c.009.003.748.552.764 1.195a.825.825 0 0 1-.324.68c-.392.311-1.332.701-2.1.542a1.364 1.364 0 0 1-.187-.051 1.234 1.234 0 0 1-.716-.604 8.198 8.198 0 0 1-.106-.197c-.282-.53-.552-1.028-.376-1.525.11-.304.356-.538.76-.709.836-.364 1.788.312 2.24.634zm6.502 9.536l.04.023c.43.234 1.068 1.505 1.105 1.961.02.283-.121.434-.208.495-.227.164-.523.129-.979.076-.305-.033-.646-.074-.963-.05a.91.91 0 0 1-.36-.043.73.73 0 0 1-.32-.224c-.323-.397-.163-1.014-.016-1.548.033-.126.066-.249.082-.334.073-.364.291-.518.417-.58.42-.202.91.067 1.202.224zm-15.082-9.736a.635.635 0 0 0 .133-.016c.521-.125.929.11 1.054.196.12.066.221.115.312.155.237.111.478.222.568.5.084.278-.038.535-.175.768-.284.507-1.027.985-1.687.895a.84.84 0 0 1-.207-.047c-.372-.128-.643-.455-.754-.917-.143-.587-.122-.951.06-1.206.211-.285.516-.314.695-.328zm16.804 6.896a1.08 1.08 0 0 1-.662-1.374c.195-.566.81-.869 1.369-.676a1.085 1.085 0 0 1-.707 2.05zm-8.408-.88a.782.782 0 0 1-.51 1.48.78.78 0 0 1-.477-.992.78.78 0 0 1 .987-.489zM362.63 228a1.087 1.087 0 0 1 1.375-.675 1.085 1.085 0 1 1-.706 2.051 1.083 1.083 0 0 1-.668-1.376zm7.632 13.27c.573.196.823.915.572 1.642-.249.724-.89 1.141-1.462.944-.572-.197-.821-.916-.57-1.644.25-.727.89-1.14 1.46-.943z" fill="#334557"/><g transform="translate(339 178)"><use fill="#A1736C" xlink:href="#n"/><path stroke="#313E4D" stroke-width="1.5" d="M21.552.77C9.98 1.267.75 10.805.75 22.5c0 12.012 9.738 21.75 21.75 21.75 11.731 0 21.293-9.287 21.734-20.91l-3.617.4c-1.282.203-2.224.203-2.875-.036a4.18 4.18 0 0 0-.348-.108 1.962 1.962 0 0 1-.209-.073c-.321-.134-.558-.336-1.215-.993-.463-.462-.713-1.081-1.013-2.197l-.142-.535c-.14-.53-.236-.826-.334-1.017-.359.109-.738.3-1.284.625-1.768 1.056-2.142 1.21-3.032.765-.937-.469-1.723-1.146-1.9-2.022-.156-.772.102-2.101.76-4.105-3.267-.806-5.045-1.882-5.267-3.438-.164-1.143.361-1.905 1.529-2.868l.461-.378a4.86 4.86 0 0 0 .352-.316c.161-.163.196-.233.196-.23-.13-.842-.904-1.53-1.824-1.565-.694-.025-1.909-.605-2.44-1.03-.725-.58-.832-1.705-.48-3.449z"/></g><path fill="#FFF" d="M356.5 192.133a1.001 1.001 0 1 0-1 1.736 1.001 1.001 0 0 0 1-1.736M349 198a1 1 0 1 0 0 1.999 1 1 0 0 0 0-1.999m3 10a1.001 1.001 0 1 0 1 1c0-.551-.449-1-1-1m10.501 3.135A1.001 1.001 0 1 0 362 213c.355 0 .686-.191.866-.501a.992.992 0 0 0 .1-.759.993.993 0 0 0-.465-.605M369 205a1.001 1.001 0 0 0-.866 1.499A1 1 0 1 0 369 205"/></g></svg>