<svg width="222" height="392" viewBox="0 0 222 392" xmlns="http://www.w3.org/2000/svg" xmlns:xlink="http://www.w3.org/1999/xlink"><title>8EBE65EA-1A95-4904-AFA6-F4A7ABA66700</title><defs><path id="a" d="M0 .152v161.93h220.95V.153H0z"/><path id="c" d="M0 392.343h221.332V0H0z"/></defs><g transform="translate(0 -1)" fill="none" fill-rule="evenodd"><g transform="translate(0 230.26)"><mask id="b" fill="#fff"><use xlink:href="#a"/></mask><path d="M.663 11.064c-1.499 10.195-1.856 30.77 14.742 55.36 18.773 28.072 50.684 45.668 85.847 48.357.577 9.807-3.657 20.128-7.75 22.833-1.984 1.183-3.402 2.952-3.821 5.095-.421 2.142-.151 4.539 1.16 6.187l8.672 9.732c2.29 3.152 6.802 4.442 10.184 2.62 17.525-8.848 14.723-36.372 12.796-46.682 37.557-3.714 70.088-23.885 86.793-55.302 10.377-19.56 11.807-37.833 11.654-46.727.073-5.351-3.33-9.668-8.4-11.55-1.352-.5-2.83-.67-4.293-.835L13.132.298C6.962.348 1.448 4.816.663 11.064" fill="#FEFEFE" mask="url(#b)"/></g><mask id="d" fill="#fff"><use xlink:href="#c"/></mask><path fill="#FEFEFE" mask="url(#d)" d="M17.337 236.529H202.89V7.93H17.337z"/><path d="M41.075 197.507v10.014h8.202c2.944 0 4.57-2.515 4.57-4.98 0-2.361-1.626-5.034-4.73-5.034h-8.042zm6.992-5.612c2.416 0 3.89-1.938 3.89-4.35 0-2.571-1.474-4.197-4.1-4.197h-6.782v8.547h6.992zm6.097 2.308c4.522 1.1 6.728 5.297 6.728 8.442 0 5.874-4.204 10.855-11.248 10.855H34.346v-36.128H48.54c6.36 0 10.41 3.776 10.41 9.805 0 2.623-1.159 5.663-4.786 7.026zm35.696 13.214c6.52 0 11.672-5.297 11.672-11.903 0-6.607-5.152-11.955-11.673-11.955-6.57 0-11.67 5.348-11.67 11.955 0 6.606 5.1 11.903 11.67 11.903m0-30.465c10.304 0 18.401 8.284 18.401 18.562 0 10.172-8.097 18.51-18.4 18.51-10.304 0-18.346-8.338-18.346-18.51 0-10.278 8.042-18.562 18.345-18.562m46.106 17.251l12.617 19.297h-7.992l-8.619-13.895-8.624 13.895h-7.934l12.562-19.297-11.356-16.831h8.042l7.31 11.483 7.305-11.483h8.043zm22.818-16.831h27.177v6.136h-10.198V213.5h-6.781v-29.992h-10.198z" fill="#F16760" mask="url(#d)"/><path d="M10.924 236.529h198.379V1.532H10.923v234.997zm6.413-6.397H202.89V7.931H17.337v222.201z" fill="#F16760" mask="url(#d)"/><path d="M1.045 240.563c-1.5 10.195-1.856 30.77 14.741 55.36 18.774 28.072 50.685 45.668 85.848 48.357.576 9.807-3.658 20.128-7.75 22.833-1.984 1.183-3.403 2.952-3.822 5.095-.42 2.142-.15 4.539 1.16 6.187l8.672 9.732c2.291 3.152 6.802 4.442 10.185 2.62 17.524-8.848 14.723-36.372 12.796-46.682 37.557-3.714 70.088-23.885 86.793-55.302 10.376-19.56 11.807-37.834 11.653-46.728.074-5.35-3.33-9.667-8.399-11.548-1.353-.5-2.831-.672-4.293-.836l-195.116.146c-6.17.05-11.683 4.518-12.468 10.766zm19.302 49.376c1.98-1.185 7.71-5.198 14.316-11.579 5.017 10.294 11.324 19.172 17.327 26.774-7.127 4.652-12.43 6.522-12.764 6.398-6.648-5.926-12.695-12.386-18.03-19.744.236-.69-.306-1.27-.849-1.85zm46.35 38.683c-7.303-3.089-14.247-7.205-20.712-11.524 2.776-1.267 6.621-3.299 11.175-6.21 5.837 6.005 11.586 11.216 16.927 15.497-4.259 1.1-7.122 1.573-7.6 1.78l.21.457zm11.286 3.808c1.268-.293 2.194-.726 3.586-1.352 1.778 1.422 3.671 2.525 5.589 3.614-3.305-.489-6.484-1.265-9.175-2.262zm28.8 51.738c-.458.208-.796.082-1.023-.381l-8.463-9.273-.21-.456s.125-.338.583-.548c7.46-4.527 11.697-17.923 11.354-28.408 2.275.087 4.554.15 6.969-.09 1.476 10.5 3.096 32.965-9.21 39.156zm32.657-50.449c1.046-.767 2.442-1.39 3.614-2.495l2.362.875c-2.053.401-4.248 1.127-5.976 1.62zm55.367-96.884c-1.075 8.038-3.176 15.71-5.335 22.587 1.852 2.228 3.722 4.46 5.379 6.211 3.266-8.761 5.767-18.589 7.39-29.115l6.49.105c3.092-.01 5.278 2.342 5.294 5.422.197 7.75-.908 23.068-9.01 39.635-7.237-5.367-25.537-20.231-32.918-44.833l22.71-.012zm-47.364.075c-1.702 9.725-4.304 18.754-7.525 26.374 1.27 2.77 3.017 5.335 4.413 7.773 4.442-9.866 7.923-21.248 10.299-33.8l10.157-.426c3.925 15.267 11.841 27.04 19.424 35.61-4.188 9.197-9.622 17.537-14.876 24.42 2.11 1.545 4.231 3.111 6.13 4.193 5.256-6.883 9.956-14.332 14.374-23.066 4.733 4.83 9.305 8.047 12.095 9.862-5.213 8.821-11.526 16.45-18.465 22.694-8.66-3.593-45.81-21.598-57.468-73.894l21.442.26zm-48.826-.063c-2.167 9.946-5.101 18.835-9.14 26.547 1.272 2.776 2.542 5.545 3.826 8.34 5.127-9.612 9.736-20.955 12.617-34.858l12.313-.027c3.211 16.162 9.02 29.446 15.515 39.916-5.252 9.944-11.21 17.705-17.485 24.214 1.645 1.767 3.419 3.187 5.211 4.611 6.143-6.154 11.523-13.373 16.737-22.196 7.287 10.38 15.71 17.726 22.923 23.1-4.975 5.066-9.802 9.794-14.61 13.39 3.046 1.13 5.737 2.127 8.24 2.672 3.995-3.513 8.593-7.563 12.502-11.868 3.668 2.515 7.277 4.239 9.845 5.57-6.438 4.908-13.182 8.54-20.14 11.718-7.93-1.404-65.002-14.524-80.046-90.723l21.692-.406zm-46.549 0c-2.723 9.341-6.868 17.397-11.665 24.075.936 2.645 2.21 5.414 3.273 7.727 6.566-8.319 12.397-18.804 16.036-31.668l9.58.1c2.779 15.22 7.583 28.137 13.012 39.366-6.25 9.572-13.465 16.492-19.692 21.856 1.52 2.103 3.174 3.854 4.836 5.632 6.104-5.034 12.835-11.75 18.73-20.294 6.354 10.79 13.27 19.114 20.795 25.743-6.561 5.242-12.974 8.997-19.01 11.757 2.46 1.669 4.566 3.232 6.798 4.44 5.69-2.888 11.432-6.894 17.403-11.574 7.985 6.42 15.929 10.908 22.797 14.213-8.505 5.283-15.004 8.25-17.323 9.307-3.545.222-6.612.224-10.04.114-6.088-2.26-66.383-27.312-78.011-100.324l22.481-.47zm-38.57.258l8.433.052c1.847 12.576 5.34 23.847 9.555 34.247-6.857 7.05-13.059 11.262-15.027 12.451-10.306-18.79-9.883-34.368-8.477-42.278.668-2.813 2.879-4.669 5.515-4.472z" fill="#334557" mask="url(#d)"/></g></svg>